<?xml version="1.0" encoding="UTF-8"?>
<!DOCTYPE svg PUBLIC "-//W3C//DTD SVG 1.1//EN" "http://www.w3.org/Graphics/SVG/1.1/DTD/svg11.dtd">
<!-- Creator: CorelDRAW X7 -->
<svg xmlns="http://www.w3.org/2000/svg" xml:space="preserve" width="528px" height="302px" version="1.1" style="shape-rendering:geometricPrecision; text-rendering:geometricPrecision; image-rendering:optimizeQuality; fill-rule:evenodd; clip-rule:evenodd"
viewBox="0 0 78 45"
 xmlns:xlink="http://www.w3.org/1999/xlink">
 <defs>
  <style type="text/css">
   <![CDATA[
    .fil0 {fill:red;fill-rule:nonzero}
   ]]>
  </style>
 </defs>
 <g id="Слой_x0020_1">
  <metadata id="CorelCorpID_0Corel-Layer"/>
  <g id="_22294752256">
   <g>
    <path class="fil0" d="M7 43l0 -4c1,-2 2,-4 5,-5l3 0c2,2 4,7 9,7 4,0 6,-5 8,-7l4 0c2,1 4,3 4,5l0 4 -33 0zm13 -14c1,1 2,1 4,1 1,0 2,0 3,-1 0,2 1,3 3,4 -1,2 -3,6 -6,6 -4,0 -6,-4 -7,-6 2,-1 3,-2 3,-4zm-12 -6l0 -6c0,-8 7,-15 16,-15l0 0c8,0 15,7 15,15l0 6c0,2 -2,4 -4,4l-3 0c1,-2 2,-3 2,-4 0,0 0,0 0,0 2,0 3,-1 3,-3 1,-1 0,-3 -1,-3 0,-1 0,-2 0,-2 0,-1 -1,-1 -1,-1 0,0 -7,0 -7,0l0 -4c0,0 -1,0 -1,-1 0,0 -1,1 -1,1l-2 4 -12 0c0,0 -1,0 -1,1 0,0 0,1 0,2 -1,0 -2,2 -1,3 0,2 1,3 3,3 0,0 0,0 0,0 0,1 1,2 2,4l-3 0c-2,0 -4,-2 -4,-4zm28 -3c0,0 -1,0 -1,0 0,0 0,-1 0,-1 1,0 1,0 1,1zm-24 -1c0,0 0,1 0,2 0,-1 0,-1 0,-1 -1,-1 0,-1 0,-1zm1 -3l11 0c0,0 1,0 1,-1l1 -1 0 1c0,0 0,1 1,1l7 0c0,6 -3,12 -10,12 -8,0 -11,-6 -11,-12zm33 27l-4 0 0 -4c-1,-3 -3,-6 -6,-6l-5 -1c-1,-1 -2,-2 -2,-3l0 -1c0,0 0,0 0,0 0,0 0,0 0,0l6 0c3,0 6,-2 6,-5l0 -6c0,-9 -8,-17 -17,-17l0 0c-10,0 -17,8 -17,17l0 6c0,3 2,5 5,5l6 0c0,0 0,0 0,0l0 1c0,1 -1,2 -2,3l-5 1c-3,0 -5,3 -6,6l0 4 -4 0c-1,0 -1,0 -1,1 0,0 0,1 1,1l45 0c1,0 1,-1 1,-1 0,-1 0,-1 -1,-1z"/>
    <path class="fil0" d="M28 21c0,0 1,0 1,-1 0,-1 -1,-1 -1,-1 -1,0 -1,0 -1,1 0,1 0,1 1,1z"/>
    <path class="fil0" d="M19 19c0,0 -1,0 -1,1 0,1 1,1 1,1 1,0 1,0 1,-1 0,-1 0,-1 -1,-1z"/>
    <path class="fil0" d="M13 10c0,0 1,0 1,0 0,0 0,0 0,0l0 0c1,0 1,-1 0,-1 0,-1 -1,0 -1,0l0 0c0,0 0,1 0,1z"/>
    <path class="fil0" d="M16 8c0,0 0,0 0,0 2,-2 5,-3 8,-3l0 0c0,0 1,0 1,-1 0,0 -1,-1 -1,-1 -4,0 -7,2 -9,4 0,0 0,1 0,1 0,0 0,0 1,0z"/>
    <path class="fil0" d="M25 24c1,0 1,-1 0,-1 0,0 -1,-1 -1,0 0,0 0,0 0,0 -1,0 -1,0 -1,0 0,-1 -1,0 -1,0 0,0 0,1 0,1 1,1 1,1 2,1 0,0 1,0 1,-1z"/>
   </g>
   <g>
    <path class="fil0" d="M47 43l0 -3c0,-2 1,-3 3,-3l4 -1c0,0 1,0 1,-1l4 5c0,1 0,1 1,1 0,0 0,0 0,0 0,0 0,0 0,-1l4 -5c1,1 1,1 1,1l4 1c2,0 3,1 3,3l1 3 -26 0 0 0zm13 -10c1,0 2,0 2,0 0,0 1,1 1,1l-3 5 -4 -5c0,0 1,-1 1,-1 1,0 1,0 3,0zm-8 -9c2,0 4,-1 6,-3 2,3 7,4 9,4 0,2 -2,7 -7,7 -6,0 -8,-5 -8,-8zm-2 2c0,0 0,-1 0,-1 0,1 1,1 1,2 -1,-1 -1,-1 -1,-1zm5 -13c0,0 0,0 0,0 0,0 0,0 0,0 1,-1 3,-1 5,-1 5,0 9,4 9,9 0,1 0,2 0,2 -2,0 -9,0 -10,-4 -1,0 -1,0 -1,0 0,0 0,0 0,0 0,0 -1,0 -1,0 -1,3 -5,4 -7,4 0,0 0,-1 0,-2 0,-3 2,-6 5,-8zm14 13c0,0 0,0 0,0 -1,1 -1,1 -1,1 0,-1 1,-1 1,-2 0,0 0,1 0,1zm8 17l-3 0 0 -3c-1,-2 -2,-4 -5,-5l-4 -1c0,0 -1,-1 -1,-2l0 0c1,0 1,-1 2,-2 1,0 1,-1 2,-2 0,0 0,0 0,0 1,0 1,0 1,0 1,-1 1,-1 1,-2 1,0 0,-1 0,-2 0,0 0,0 0,0 0,0 0,0 0,0 0,-1 0,-2 0,-3 0,-6 -4,-10 -10,-10 -2,0 -4,0 -5,1 0,-1 0,-1 0,-1 0,-1 0,-1 0,-1 -1,-1 -1,0 -1,0 -1,0 -1,1 -1,1 0,0 0,0 -1,0 0,0 0,0 0,0 0,1 0,1 0,1 1,0 1,0 1,0 -2,2 -4,6 -4,9 0,1 0,2 0,3 0,0 0,0 0,0 0,1 0,2 0,2 0,1 1,2 2,2 0,0 0,0 0,0 1,1 1,2 2,2 1,1 1,2 2,2l0 0c0,1 0,2 -1,2l-4 1c-3,1 -4,3 -5,5l0 3 -3 0c-1,0 -1,0 -1,1 0,0 0,1 1,1l35 0c1,0 1,-1 1,-1 0,-1 0,-1 -1,-1z"/>
    <path class="fil0" d="M63 26c0,0 1,0 1,-1 0,0 -1,-1 -1,-1 -1,0 -1,1 -1,1 0,1 0,1 1,1z"/>
    <path class="fil0" d="M56 24c0,0 -1,1 -1,1 0,1 1,1 1,1 1,0 1,0 1,-1 0,0 0,-1 -1,-1z"/>
    <path class="fil0" d="M53 18c0,0 0,0 0,0 0,0 1,0 1,-1l0 0c0,0 0,0 0,-1 -1,0 -1,0 -1,1l0 0c-1,0 -1,0 0,1z"/>
    <path class="fil0" d="M54 16c1,0 1,0 1,0 1,-1 3,-2 5,-2l0 0c0,0 0,0 0,0 0,-1 0,-1 0,-1 -3,0 -5,1 -6,2 0,0 0,1 0,1 0,0 0,0 0,0z"/>
    <path class="fil0" d="M61 29c0,-1 0,-1 0,-1 0,-1 -1,-1 -1,0 0,0 0,0 0,0 -1,0 -1,0 -1,0 0,-1 -1,-1 -1,0 0,0 0,0 0,1 1,0 1,0 2,0 0,0 0,0 1,0z"/>
   </g>
  </g>
 </g>
</svg>
