<?xml version="1.0" encoding="UTF-8"?>
<!DOCTYPE svg PUBLIC "-//W3C//DTD SVG 1.0//EN" "http://www.w3.org/TR/2001/REC-SVG-20010904/DTD/svg10.dtd">
<!-- Creator: CorelDRAW X7 -->
<svg xmlns="http://www.w3.org/2000/svg" xml:space="preserve" width="215px" height="215px" version="1.0" style="shape-rendering:geometricPrecision; text-rendering:geometricPrecision; image-rendering:optimizeQuality; fill-rule:evenodd; clip-rule:evenodd"
viewBox="0 0 4044 4044"
 xmlns:xlink="http://www.w3.org/1999/xlink">
 <defs>
  <style type="text/css">
   <![CDATA[
    .fil0 {fill:#06466F}
   ]]>
  </style>
 </defs>
 <g id="Слой_x0020_1">
  <metadata id="CorelCorpID_0Corel-Layer"/>
  <path class="fil0" d="M2623 3012l-610 -610 -609 610c-54,53 -124,82 -199,82 -75,0 -146,-29 -199,-82 -110,-110 -110,-288 0,-398l610 -609 -610 -610c-110,-110 -110,-288 0,-398 53,-53 124,-82 199,-82 75,0 145,29 199,82l609 610 610 -610c53,-53 124,-82 199,-82 75,0 146,29 199,82 109,110 109,288 0,398l-610 610 610 609c109,110 109,288 0,398 -53,53 -124,82 -199,82 -75,0 -146,-29 -199,-82zm-942 -2627l-18 2c-41,0 -77,-29 -86,-70 -9,-47 21,-94 68,-103 123,-26 250,-39 377,-39 48,0 88,39 88,88 0,48 -40,87 -88,87 -115,0 -230,12 -341,35zm-416 146c-564,287 -915,858 -915,1491 0,48 -39,88 -87,88 -49,0 -88,-40 -88,-88 0,-347 97,-686 281,-979 178,-285 431,-516 730,-668 43,-22 96,-5 117,38 22,43 5,96 -38,118zm-1265 1491c0,1115 907,2022 2022,2022 1115,0 2022,-907 2022,-2022 0,-1115 -907,-2022 -2022,-2022 -1115,0 -2022,907 -2022,2022z"/>
 </g>
</svg>
