<?xml version="1.0" encoding="UTF-8"?>
<!DOCTYPE svg PUBLIC "-//W3C//DTD SVG 1.0//EN" "http://www.w3.org/TR/2001/REC-SVG-20010904/DTD/svg10.dtd">
<!-- Creator: CorelDRAW X7 -->
<svg xmlns="http://www.w3.org/2000/svg" xml:space="preserve" width="238px" height="238px" version="1.0" style="shape-rendering:geometricPrecision; text-rendering:geometricPrecision; image-rendering:optimizeQuality; fill-rule:evenodd; clip-rule:evenodd"
viewBox="0 0 2809 2809"
 xmlns:xlink="http://www.w3.org/1999/xlink">
 <defs>
  <style type="text/css">
   <![CDATA[
    .fil0 {fill:#7EBCDB;fill-rule:nonzero}
   ]]>
  </style>
 </defs>
 <g id="Слой_x0020_1">
  <metadata id="CorelCorpID_0Corel-Layer"/>
  <g id="_1051880244672">
   <path class="fil0" d="M2398 411c-265,-265 -618,-411 -993,-411 -375,0 -728,146 -994,411 -265,266 -411,619 -411,994 0,375 146,728 411,993 266,265 619,411 994,411 375,0 728,-146 993,-411 265,-265 411,-618 411,-993 0,-375 -146,-728 -411,-994zm-993 2287c-713,0 -1293,-580 -1293,-1293 0,-713 580,-1293 1293,-1293 713,0 1293,580 1293,1293 0,713 -580,1293 -1293,1293z"/>
   <path class="fil0" d="M1653 1393l390 -389c70,-70 70,-184 0,-255 -34,-34 -79,-52 -127,-52 -48,0 -93,18 -127,52l-390 390 -390 -390c-34,-34 -79,-52 -127,-52 -48,0 -93,18 -127,52 -70,71 -70,185 0,255l390 389 -390 390c-70,70 -70,185 0,255 34,34 79,52 127,52 48,0 93,-18 127,-52l390 -390 390 390c34,34 79,52 127,52 48,0 93,-18 127,-52 70,-70 70,-185 0,-255l-390 -390zm311 565c-13,13 -30,20 -48,20 -18,0 -35,-7 -48,-20l-429 -429c-11,-10 -25,-16 -40,-16 -15,0 -29,6 -39,16l-430 429c-13,13 -30,20 -48,20 -18,0 -35,-7 -48,-20 -26,-26 -26,-69 0,-96l430 -429c10,-10 16,-25 16,-40 0,-14 -6,-29 -16,-39l-430 -429c-26,-27 -26,-70 0,-96 13,-13 30,-20 48,-20 18,0 35,7 48,20l430 429c21,22 57,22 79,0l429 -429c13,-13 30,-20 48,-20 18,0 35,7 48,20 27,26 27,69 0,96l-429 429c-11,10 -17,25 -17,39 0,15 6,30 17,40l429 429c27,27 27,70 0,96z"/>
   <path class="fil0" d="M945 376c-14,-28 -47,-38 -75,-24 -191,97 -353,245 -467,427 -117,187 -179,404 -179,626 0,31 25,56 56,56 31,0 56,-25 56,-56 0,-405 224,-770 585,-954 27,-14 38,-47 24,-75z"/>
   <path class="fil0" d="M1175 359c4,0 8,0 12,-1 71,-15 144,-22 218,-22 31,0 56,-25 56,-56 0,-31 -25,-56 -56,-56 -81,0 -162,8 -241,24 -30,7 -50,36 -44,67 6,26 29,44 55,44z"/>
  </g>
 </g>
</svg>
