<?xml version="1.0" encoding="UTF-8"?>
<!DOCTYPE svg PUBLIC "-//W3C//DTD SVG 1.1//EN" "http://www.w3.org/Graphics/SVG/1.1/DTD/svg11.dtd">
<!-- Creator: CorelDRAW X7 -->
<svg xmlns="http://www.w3.org/2000/svg" xml:space="preserve" width="305px" height="309px" version="1.1" style="shape-rendering:geometricPrecision; text-rendering:geometricPrecision; image-rendering:optimizeQuality; fill-rule:evenodd; clip-rule:evenodd"
viewBox="0 0 93 94"
 xmlns:xlink="http://www.w3.org/1999/xlink">
 <defs>
  <style type="text/css">
   <![CDATA[
    .fil0 {fill:red;fill-rule:nonzero}
   ]]>
  </style>
 </defs>
 <g id="Слой_x0020_1">
  <metadata id="CorelCorpID_0Corel-Layer"/>
  <g id="_22294732448">
   <path class="fil0" d="M18 27l8 13 -20 0 12 -13zm75 15l0 0c0,-1 0,-1 -1,-1l-16 -18c0,-1 -1,-1 -1,-1l-57 0c-1,0 -1,0 -2,1l-16 18c0,0 0,1 0,2 0,0 0,0 1,0 0,0 0,0 0,0l44 50c0,1 1,1 1,1 1,0 1,0 2,-1l44 -50c0,0 0,0 0,0 0,0 0,0 1,0 0,-1 0,-1 0,-1zm-26 -2l8 -13 12 13 -20 0 0 0zm-7 14c-1,0 -2,0 -3,1l-11 30 -14 -41 55 0 -37 41 11 -28c0,-1 -1,-2 -1,-3zm-32 -10l15 41 -37 -41 22 0zm22 -18l22 0 -9 13 -13 -13zm-21 13l-8 -13 21 0 -13 13zm17 -12l14 13 -27 0 13 -13z"/>
   <path class="fil0" d="M46 13c1,0 2,-1 2,-2l0 -9c0,-1 -1,-2 -2,-2 -1,0 -1,1 -1,2l0 9c0,1 0,2 1,2z"/>
   <path class="fil0" d="M55 17c1,0 1,0 1,0l7 -7c1,-1 1,-2 0,-3 -1,0 -2,0 -3,0l-6 7c-1,1 -1,2 0,3 0,0 1,0 1,0z"/>
   <path class="fil0" d="M36 17c0,0 1,0 1,0 1,0 1,0 2,0 0,-1 0,-2 0,-3l-7 -7c-1,0 -2,0 -3,0 0,1 0,2 0,3l7 7z"/>
   <path class="fil0" d="M61 47c1,0 2,1 2,2 0,1 -1,2 -2,2 -1,0 -2,-1 -2,-2 0,-1 1,-2 2,-2z"/>
  </g>
 </g>
</svg>
