<?xml version="1.0" encoding="UTF-8"?>
<!DOCTYPE svg PUBLIC "-//W3C//DTD SVG 1.1//EN" "http://www.w3.org/Graphics/SVG/1.1/DTD/svg11.dtd">
<!-- Creator: CorelDRAW X7 -->
<svg xmlns="http://www.w3.org/2000/svg" xml:space="preserve" width="313px" height="335px" version="1.1" style="shape-rendering:geometricPrecision; text-rendering:geometricPrecision; image-rendering:optimizeQuality; fill-rule:evenodd; clip-rule:evenodd"
viewBox="0 0 26 28"
 xmlns:xlink="http://www.w3.org/1999/xlink">
 <defs>
  <style type="text/css">
   <![CDATA[
    .fil0 {fill:red;fill-rule:nonzero}
   ]]>
  </style>
 </defs>
 <g id="Слой_x0020_1">
  <metadata id="CorelCorpID_0Corel-Layer"/>
  <g id="_22294752832">
   <path class="fil0" d="M16 10c0,0 0,0 0,0l5 0c0,0 0,0 0,0 0,-1 0,-1 0,-1l-5 0c0,0 0,0 0,1z"/>
   <path class="fil0" d="M18 12c0,1 1,1 1,1l3 0c0,0 0,0 0,-1 0,0 0,0 0,0l-3 0c0,0 -1,0 -1,0z"/>
   <path class="fil0" d="M18 7c0,0 0,0 0,0 0,0 0,-1 0,-1l-1 0c0,0 0,1 0,1 0,0 0,0 0,0l1 0z"/>
   <path class="fil0" d="M12 12c0,0 0,0 0,0 0,1 0,1 0,1l5 0c0,0 1,0 1,-1 0,0 -1,0 -1,0l-5 0z"/>
   <path class="fil0" d="M15 25l-9 0c-1,0 -1,-1 -1,-1l0 -22c0,0 -1,0 -1,0 -1,0 -2,1 -2,2 0,0 0,1 0,1 1,0 1,-1 1,-1 0,0 0,-1 1,-1l0 21c0,1 1,2 2,2l9 0c0,0 0,0 0,-1 0,0 0,0 0,0z"/>
   <path class="fil0" d="M8 10l6 0c1,0 1,0 1,0 0,-1 0,-1 -1,-1l-6 0c0,0 -1,0 -1,1 0,0 1,0 1,0z"/>
   <path class="fil0" d="M8 7l2 0c0,0 0,0 0,0 0,0 0,-1 0,-1l-2 0c0,0 -1,1 -1,1 0,0 1,0 1,0z"/>
   <path class="fil0" d="M15 6l-3 0c-1,0 -1,1 -1,1 0,0 0,0 1,0l3 0c0,0 1,0 1,0 0,0 -1,-1 -1,-1z"/>
   <path class="fil0" d="M22 0l-18 0c-2,0 -4,2 -4,4l0 0c0,2 1,3 2,4 0,0 1,0 1,0 0,-1 0,-1 0,-1 -1,-1 -2,-2 -2,-3 0,-2 1,-3 3,-3l18 0c1,0 3,1 3,3l0 20c0,0 0,0 0,0 0,0 0,1 0,1 0,0 0,0 0,0 0,0 0,0 1,0 0,-1 0,-1 0,-1l0 -20c0,-2 -2,-4 -4,-4z"/>
   <path class="fil0" d="M23 21c0,-1 -1,-3 -3,-3 -1,0 -2,2 -2,3 0,2 1,3 2,3 2,0 3,-1 3,-3zm-3 2c-1,0 -2,-1 -2,-2 0,-1 1,-2 2,-2 1,0 2,1 2,2 0,1 -1,2 -2,2z"/>
   <path class="fil0" d="M19 24c0,0 0,0 0,1l-1 1 0 0c0,0 -1,0 -1,0l0 0 1 -2c0,0 0,0 0,0 0,-1 -1,-1 -1,0l-1 2c0,0 0,0 0,1 0,0 0,0 0,0l1 0 0 0c1,1 1,1 1,1l0 0c0,0 0,0 0,-1l2 -2c0,0 0,0 -1,-1z"/>
   <path class="fil0" d="M23 24c0,-1 0,-1 0,0 0,0 -1,0 0,0l1 2 -1 0c0,0 0,0 0,0l0 0 -1 -1c0,-1 -1,-1 -1,-1 0,1 0,1 0,1l1 2c0,1 1,1 1,1l0 0c0,0 0,0 0,-1l1 0 0 0c1,0 1,0 1,0 0,-1 0,-1 0,-1l-2 -2z"/>
   <path class="fil0" d="M8 13l3 0c0,0 0,0 0,-1 0,0 0,0 0,0l-3 0c0,0 -1,0 -1,0 0,1 1,1 1,1z"/>
   <path class="fil0" d="M8 16l5 0c1,0 1,-1 1,-1 0,0 0,0 -1,0l-5 0c0,0 -1,0 -1,0 0,0 1,1 1,1z"/>
   <path class="fil0" d="M8 21c0,1 0,1 1,1 0,0 0,-1 0,-1 -1,-1 -1,-2 -1,-2 1,0 1,-1 1,-1 0,0 1,1 1,1 0,0 0,2 -1,3 0,0 0,0 0,0 1,0 1,0 1,0 0,0 0,0 1,-1l0 1c0,0 0,0 0,0 0,0 0,0 0,0 1,0 1,0 1,-1 0,0 0,0 0,0 0,1 0,1 0,1 0,0 0,0 0,0l2 0c1,0 1,0 1,0 0,-1 0,-1 -1,-1l-1 0c0,0 0,0 0,0 0,-1 0,-1 -1,-1 0,0 0,0 0,1 0,-1 -1,-1 -1,-1 0,0 0,0 0,0 0,0 0,-1 -1,-2 0,0 0,0 -1,0 0,0 -1,0 -1,0 -1,1 -1,2 0,3z"/>
   <path class="fil0" d="M20 15c0,0 0,0 0,0l-5 0c0,0 0,0 0,0 0,0 0,1 0,1l5 0c0,0 0,-1 0,-1z"/>
  </g>
 </g>
</svg>
