<?xml version="1.0" encoding="UTF-8"?>
<!DOCTYPE svg PUBLIC "-//W3C//DTD SVG 1.1//EN" "http://www.w3.org/Graphics/SVG/1.1/DTD/svg11.dtd">
<!-- Creator: CorelDRAW X8 -->
<svg xmlns="http://www.w3.org/2000/svg" xml:space="preserve" width="14.5567mm" height="3.4288mm" version="1.1" style="shape-rendering:geometricPrecision; text-rendering:geometricPrecision; image-rendering:optimizeQuality; fill-rule:evenodd; clip-rule:evenodd"
viewBox="0 0 104 25"
 xmlns:xlink="http://www.w3.org/1999/xlink">
 <defs>
  <style type="text/css">
   <![CDATA[
    .fil0 {fill:#7EBCDB;fill-rule:nonzero}
   ]]>
  </style>
 </defs>
 <g id="Слой_x0020_1">
  <metadata id="CorelCorpID_0Corel-Layer"/>
  <g id="_2903376757824">
   <path class="fil0" d="M10 5l5 0 0 -5 -5 0 0 5zm6 0l3 -3 4 3 -4 4 -3 -4zm4 10l5 0 0 -5 -5 0 0 5zm-4 4l3 -3 4 3 -4 4 -3 -4zm-6 6l5 0 0 -5 -5 0 0 5zm-8 -6l3 -3 4 3 -4 4 -3 -4zm-2 -4l5 0 0 -5 -5 0 0 5zm2 -10l3 -3 4 3 -4 4 -3 -4z"/>
   <path class="fil0" d="M49 5l5 0 0 -5 -5 0 0 5zm6 0l4 -3 3 3 -3 4 -4 -4zm4 10l5 0 0 -5 -5 0 0 5zm-4 4l4 -3 3 3 -3 4 -4 -4zm-6 6l5 0 0 -5 -5 0 0 5zm-8 -6l4 -3 3 3 -3 4 -4 -4zm-2 -4l5 0 0 -5 -5 0 0 5zm2 -10l4 -3 3 3 -3 4 -4 -4z"/>
   <path class="fil0" d="M90 5l4 0 0 -5 -4 0 0 5zm6 0l3 -3 3 3 -3 4 -3 -4zm3 10l5 0 0 -5 -5 0 0 5zm-3 4l3 -3 3 3 -3 4 -3 -4zm-6 6l4 0 0 -5 -4 0 0 5zm-8 -6l3 -3 4 3 -4 4 -3 -4zm-2 -4l5 0 0 -5 -5 0 0 5zm2 -10l3 -3 4 3 -4 4 -3 -4z"/>
  </g>
 </g>
</svg>
