<?xml version="1.0" encoding="UTF-8"?>
<!DOCTYPE svg PUBLIC "-//W3C//DTD SVG 1.1//EN" "http://www.w3.org/Graphics/SVG/1.1/DTD/svg11.dtd">
<!-- Creator: CorelDRAW X7 -->
<svg xmlns="http://www.w3.org/2000/svg" xml:space="preserve" width="444px" height="516px" version="1.1" style="shape-rendering:geometricPrecision; text-rendering:geometricPrecision; image-rendering:optimizeQuality; fill-rule:evenodd; clip-rule:evenodd"
viewBox="0 0 88 102"
 xmlns:xlink="http://www.w3.org/1999/xlink">
 <defs>
  <style type="text/css">
   <![CDATA[
    .fil0 {fill:red;fill-rule:nonzero}
   ]]>
  </style>
 </defs>
 <g id="Слой_x0020_1">
  <metadata id="CorelCorpID_0Corel-Layer"/>
  <g id="_22283378656">
   <path class="fil0" d="M44 14c-1,0 -2,-1 -2,-2 0,-1 1,-2 2,-2l0 0c1,0 2,1 2,2 0,1 -1,2 -2,2z"/>
   <path class="fil0" d="M50 80c-1,0 -1,0 -1,-1l0 0c-1,-1 -1,-2 0,-3 0,0 2,0 2,0l0 0c1,1 1,2 0,3 0,1 -1,1 -1,1z"/>
   <path class="fil0" d="M54 81c-1,0 -2,-1 -2,-2 0,-1 1,-2 2,-2 1,0 2,-1 2,-3 0,-1 -1,-3 -3,-3 -1,0 -2,2 -2,3 -1,1 -2,2 -3,2 -1,-1 -2,-2 -1,-3 0,-3 3,-6 6,-6 0,0 0,0 0,0 4,0 7,4 7,7 0,4 -2,6 -6,7 0,0 0,0 0,0z"/>
   <path class="fil0" d="M40 52c-1,0 -1,-1 -2,-1l0 0c0,-1 0,-2 0,-3 1,-1 2,-1 3,0l0 0c1,1 1,2 0,3 0,0 -1,1 -1,1z"/>
   <path class="fil0" d="M45 53c-1,0 -2,-1 -2,-2 0,-1 1,-2 2,-2 2,0 3,-2 3,-4 0,-2 -2,-4 -4,-4 -2,0 -4,2 -4,4 0,1 -1,1 -2,1 -1,0 -2,-1 -2,-2 1,-4 4,-7 8,-7 0,0 0,0 0,0 4,0 8,4 8,8 0,4 -3,7 -7,8 0,0 0,0 0,0z"/>
   <path class="fil0" d="M32 75c-1,0 -3,-1 -3,-3 0,-1 2,-3 3,-3 2,0 3,2 3,3 0,2 -1,3 -3,3z"/>
   <path class="fil0" d="M41 31c-2,0 -3,-1 -3,-3 0,-2 1,-3 3,-3 2,0 3,1 3,3 0,2 -1,3 -3,3z"/>
   <path class="fil0" d="M27 85c-1,0 -2,1 -2,2 0,1 1,2 2,2 1,0 2,-1 2,-2 0,-1 -1,-2 -2,-2zm0 8c-3,0 -6,-2 -6,-6 0,-3 3,-6 6,-6 4,0 6,3 6,6 0,4 -2,6 -6,6z"/>
   <path class="fil0" d="M83 95c-1,2 -3,3 -5,3l-68 0c-2,0 -4,-1 -5,-3 -1,-2 -1,-4 0,-6l18 -27c0,0 1,0 1,0 3,-1 6,-2 10,-2 4,0 7,1 10,2 3,1 6,2 11,2 5,0 7,-1 10,-2l18 27c1,2 1,4 0,6zm-49 -48c0,-1 0,-1 0,-2l0 -31 2 0c1,0 2,-1 2,-2 0,-1 -1,-2 -2,-2l-6 0c-2,0 -3,-2 -3,-3 0,-2 1,-3 3,-3l28 0c2,0 3,1 3,3 0,1 -1,3 -3,3l-6 0c-1,0 -2,1 -2,2 0,1 1,2 2,2l2 0 0 31c0,1 0,1 0,2l9 12c-2,1 -4,1 -8,1 -4,0 -7,-1 -10,-2 -3,-1 -6,-2 -11,-2 -3,0 -5,0 -7,0l7 -9zm52 40l-28 -42 0 -31 0 0c4,0 7,-3 7,-7 0,-4 -3,-7 -7,-7l-28 0c-4,0 -7,3 -7,7 0,4 3,7 7,7l0 0 0 31 -28 42c-1,1 -2,3 -2,5 0,2 0,3 1,5 2,3 5,5 9,5l68 0c4,0 7,-2 9,-5 1,-2 1,-3 1,-5l0 0c0,-2 -1,-4 -2,-5z"/>
  </g>
 </g>
</svg>
