<?xml version="1.0" encoding="UTF-8"?>
<!DOCTYPE svg PUBLIC "-//W3C//DTD SVG 1.1//EN" "http://www.w3.org/Graphics/SVG/1.1/DTD/svg11.dtd">
<!-- Creator: CorelDRAW X7 -->
<svg xmlns="http://www.w3.org/2000/svg" xml:space="preserve" width="592px" height="573px" version="1.1" style="shape-rendering:geometricPrecision; text-rendering:geometricPrecision; image-rendering:optimizeQuality; fill-rule:evenodd; clip-rule:evenodd"
viewBox="0 0 162 157"
 xmlns:xlink="http://www.w3.org/1999/xlink">
 <defs>
  <style type="text/css">
   <![CDATA[
    .fil0 {fill:red}
    .fil1 {fill:white}
   ]]>
  </style>
 </defs>
 <g id="Слой_x0020_1">
  <metadata id="CorelCorpID_0Corel-Layer"/>
  <g id="_22294793760">
   <path class="fil0" d="M65 95c0,0 0,1 1,1 0,0 0,1 0,1 -1,0 -1,0 -2,0 0,1 -1,1 -2,1 -1,0 -1,0 -2,0 0,0 -1,0 -1,0 0,0 0,0 -1,0 0,0 0,0 0,0l-9 -12 -4 14c0,0 0,0 0,1 0,0 0,0 -1,0 0,0 0,0 -1,0 0,1 -1,1 -2,1 -1,0 -1,0 -2,0 0,0 -1,0 -1,0 0,0 0,0 0,-1 0,0 0,-1 0,-1l6 -17 -11 -13c0,0 0,-1 -1,-1 0,0 0,-1 0,-1 1,0 1,0 2,0 0,-1 1,-1 2,-1 1,0 1,0 2,0 0,0 1,0 1,0 0,0 1,0 1,0 0,0 0,0 0,0l8 11 4 -13c0,0 0,0 0,0 0,-1 0,-1 1,-1 0,0 0,0 1,0 0,0 1,0 2,-1 0,0 1,0 2,0 0,0 1,0 1,0 0,0 0,1 0,1 0,0 0,1 0,2l-5 15 11 14zm67 30c-4,-2 -10,-1 -14,2 -4,3 -6,8 -6,13 0,5 -3,8 -6,9 -3,1 -7,1 -10,-3 -3,-4 -8,-7 -13,-7 -5,1 -10,3 -13,7 -3,5 -7,5 -10,4 -3,-1 -7,-3 -7,-9 0,-5 -2,-9 -6,-12 -5,-3 -10,-4 -15,-2 -4,2 -8,0 -10,-3 -2,-3 -3,-7 0,-11 3,-4 3,-9 2,-14 -1,-3 -3,-6 -6,-8 -2,-1 -3,-2 -5,-2 -5,-1 -7,-5 -7,-9 0,-3 2,-7 7,-9 5,-1 8,-5 10,-10 1,-5 0,-10 -3,-14 -3,-4 -2,-8 0,-11 1,-3 5,-5 10,-3 5,1 10,0 14,-3 4,-3 7,-8 6,-13 0,-5 3,-8 6,-9 3,-1 8,-1 11,3 3,4 8,7 13,7 5,-1 10,-3 12,-7 3,-5 7,-5 11,-4 3,1 6,4 6,9 0,5 3,9 7,12 4,3 9,4 14,2l0 0c5,-2 9,0 11,3 2,3 3,7 0,11 -3,4 -4,9 -2,14 1,5 5,9 10,10 5,1 7,5 7,9 0,3 -1,7 -6,9 -5,1 -9,5 -10,10 -2,5 -1,10 2,14 4,4 3,8 1,11 -2,3 -6,5 -11,4zm15 -19c-2,-2 -2,-5 -1,-8 1,-3 3,-5 6,-6 6,-2 11,-8 10,-15 0,-8 -4,-13 -11,-15 -3,-1 -5,-3 -6,-6 -1,-3 -1,-6 1,-8 4,-6 4,-13 0,-19 -5,-5 -12,-7 -18,-5 -3,1 -6,1 -9,-1 -2,-2 -4,-4 -4,-7 0,-7 -4,-13 -11,-15 -6,-2 -13,0 -17,6 -2,3 -4,4 -7,4 -4,0 -6,-1 -8,-4 -4,-5 -11,-7 -18,-5 -6,2 -10,8 -10,15 0,3 -1,6 -4,8 -2,2 -5,2 -8,1 -7,-2 -14,1 -18,6 -4,6 -3,13 1,19 2,2 3,5 2,8 -1,3 -3,5 -6,6 -7,3 -11,8 -11,16 0,7 5,12 11,14 3,1 6,3 7,6 1,3 0,6 -2,8 -4,6 -4,13 1,19 1,1 2,2 3,3 4,3 10,4 15,2 2,-1 5,-1 8,1 3,2 4,4 4,7 0,8 4,13 11,15 7,2 14,0 17,-6 2,-3 5,-4 8,-4 3,0 6,1 7,4 5,5 12,7 18,5 7,-2 11,-8 11,-15 -1,-3 1,-6 3,-8 3,-2 6,-2 8,-1 7,2 14,-1 18,-6 4,-6 4,-13 -1,-19zm-97 -62c1,1 2,1 4,0 7,-5 16,-9 25,-9 10,-1 19,2 27,7 2,1 4,1 5,0 1,-2 0,-4 -1,-5 -9,-6 -20,-9 -31,-9 -11,1 -21,5 -29,11 -2,2 -2,4 -1,5 0,0 1,0 1,0zm48 79c-1,-2 -3,-3 -4,-2 -13,3 -27,1 -38,-6 -1,-1 -3,-1 -4,1 -1,1 -1,3 1,4 12,9 28,11 43,7 1,-1 2,-3 2,-4zm9 -6c2,1 2,3 1,4 -1,2 -3,2 -4,1 -2,-1 -2,-3 -1,-5 1,-1 3,-1 4,0zm16 -63c0,1 0,1 0,1 0,1 0,1 0,1 0,1 0,1 0,1 0,0 0,0 0,0l-9 2 5 27c0,1 0,1 0,1 0,0 0,0 -1,0 0,0 0,1 -1,1 0,0 -1,0 -1,0 -1,0 -1,0 -2,0 0,0 -1,0 -1,0 0,0 -1,0 -1,0 0,0 0,0 0,0l-5 -28 -9 2c0,0 0,0 0,0 0,-1 0,-1 -1,-1 0,0 0,0 0,-1 0,0 0,-1 0,-1 0,-1 0,-1 0,-1 0,-1 0,-1 0,-1 0,-1 0,-1 0,-1 0,0 0,0 0,0l24 -5c1,0 1,0 1,1 0,0 0,0 0,0 1,0 1,0 1,1 0,0 0,1 0,1zm-25 36c0,0 0,1 0,1 0,0 0,0 0,0 0,0 -1,0 -1,1 -1,0 -1,0 -2,0 -1,0 -1,0 -2,0 0,0 0,0 -1,0 0,0 0,0 0,0 0,0 -1,0 -1,0l-3 -19c0,0 0,-1 0,-2 0,0 0,-1 0,-1l-1 0c0,0 0,0 0,1 0,0 0,0 0,1 0,0 -1,1 -1,1 0,0 0,1 0,1l-9 20c0,0 0,1 0,1 0,0 -1,0 -1,0 0,0 0,0 -1,1 0,0 -1,0 -1,0 -1,0 -1,0 -2,0 0,0 -1,0 -1,0 0,0 0,0 0,0 0,0 -1,0 -1,-1l-6 -32c0,0 0,0 1,-1 0,0 0,0 0,0 0,0 1,0 1,0 1,-1 1,-1 2,-1 0,0 1,0 1,0 1,0 1,0 2,0 0,0 0,0 0,0 0,0 0,0 0,1l4 18c0,0 0,1 0,2 0,0 0,1 0,1l0 0c1,0 1,-1 1,-2 1,-1 1,-1 1,-2l9 -20c0,0 0,0 0,-1 0,0 0,0 1,0 0,0 0,0 1,0 0,-1 0,-1 1,-1 1,0 1,0 2,0 0,0 0,0 1,0 0,0 0,0 0,0 0,0 0,1 0,1l6 32z"/>
   <path class="fil1" d="M66 62c1,-1 1,-1 2,-1 0,0 1,0 1,0 1,0 1,0 2,0 0,0 0,0 0,0 0,0 0,0 0,1l4 18 0 2 0 1 0 0 1 -2c1,-1 1,-1 1,-2l9 -20c0,0 0,0 0,-1 0,0 0,0 1,0 0,0 0,0 1,0 0,-1 0,-1 1,-1 1,0 1,0 2,0 0,0 0,0 1,0 0,0 0,0 0,0 0,0 0,1 0,1l6 32c0,0 0,1 0,1 0,0 0,0 0,0 0,0 -1,0 -1,1 -1,0 -1,0 -2,0 -1,0 -1,0 -2,0 0,0 0,0 -1,0 0,0 0,0 0,0 0,0 -1,0 -1,0l-3 -19 0 -2 0 -1 -1 0 0 1 0 1 -1 1 0 1 -9 20c0,0 0,1 0,1 0,0 -1,0 -1,0 0,0 0,0 -1,1l-1 0c-1,0 -1,0 -2,0 0,0 -1,0 -1,0 0,0 0,0 0,0 0,0 -1,0 -1,-1l-6 -32c0,0 0,0 1,-1 0,0 0,0 0,0 0,0 1,0 1,0zm-1 33c0,0 0,1 1,1 0,0 0,1 0,1 -1,0 -1,0 -2,0 0,1 -1,1 -2,1 -1,0 -1,0 -2,0 0,0 -1,0 -1,0 0,0 0,0 -1,0 0,0 0,0 0,0l-9 -12 -4 14c0,0 0,0 0,1 0,0 0,0 -1,0 0,0 0,0 -1,0 0,1 -1,1 -2,1 -1,0 -1,0 -2,0 0,0 -1,0 -1,0 0,0 0,0 0,-1 0,0 0,-1 0,-1l6 -17 -11 -13c0,0 0,-1 -1,-1 0,0 0,-1 0,-1 1,0 1,0 2,0 0,-1 1,-1 2,-1 1,0 1,0 2,0 0,0 1,0 1,0 0,0 1,0 1,0 0,0 0,0 0,0l8 11 4 -13c0,0 0,0 0,0 0,-1 0,-1 1,-1 0,0 0,0 1,0 0,0 1,0 2,-1 0,0 1,0 2,0 0,0 1,0 1,0 0,0 0,1 0,1 0,0 0,1 0,2l-5 15 11 14zm53 32c4,-3 10,-4 14,-2 5,1 9,-1 11,-4 2,-3 3,-7 -1,-11 -3,-4 -4,-9 -2,-14 1,-5 5,-9 10,-10 5,-2 6,-6 6,-9 0,-4 -2,-8 -7,-9 -5,-1 -9,-5 -10,-10 -2,-5 -1,-10 2,-14 3,-4 2,-8 0,-11 -2,-3 -6,-5 -11,-3 -5,2 -10,1 -14,-2 -4,-3 -7,-7 -7,-12 0,-5 -3,-8 -6,-9 -4,-1 -8,-1 -11,4 -2,4 -7,6 -12,7 -5,0 -10,-3 -13,-7 -3,-4 -8,-4 -11,-3 -3,1 -6,4 -6,9 1,5 -2,10 -6,13 -4,3 -9,4 -14,3 -5,-2 -9,0 -10,3 -2,3 -3,7 0,11 3,4 4,9 3,14 -2,5 -5,9 -10,10 -5,2 -7,6 -7,9 0,4 2,8 7,9 2,0 3,1 5,2 3,2 5,5 6,8 1,5 1,10 -2,14 -3,4 -2,8 0,11 2,3 6,5 10,3 5,-2 10,-1 15,2 4,3 6,7 6,12 0,6 4,8 7,9 3,1 7,1 10,-4 3,-4 8,-6 13,-7 5,0 10,3 13,7 3,4 7,4 10,3 3,-1 6,-4 6,-9 0,-5 2,-10 6,-13zm-64 -83c-2,1 -3,1 -4,0 0,0 -1,0 -1,0 -1,-1 -1,-3 1,-5 8,-6 18,-10 29,-11 11,0 22,3 31,9 1,1 2,3 1,5 -1,1 -3,1 -5,0 -8,-5 -17,-8 -27,-7 -9,0 -18,4 -25,9zm40 77c1,-1 3,0 4,2 0,1 -1,3 -2,4 -15,4 -31,2 -43,-7 -2,-1 -2,-3 -1,-4 1,-2 3,-2 4,-1 11,7 25,9 38,6zm13 -4c2,1 2,3 1,4 -1,2 -3,2 -4,1 -2,-1 -2,-3 -1,-5 1,-1 3,-1 4,0zm-10 -61l24 -5c1,0 1,0 1,1 0,0 0,0 0,0 1,0 1,0 1,1 0,0 0,1 0,1 0,1 0,1 0,1 0,1 0,1 0,1 0,1 0,1 0,1 0,0 0,0 0,0l-9 2 5 27c0,1 0,1 0,1 0,0 0,0 -1,0 0,0 0,1 -1,1 0,0 -1,0 -1,0 -1,0 -1,0 -2,0 0,0 -1,0 -1,0 0,0 -1,0 -1,0 0,0 0,0 0,0l-5 -28 -9 2c0,0 0,0 0,0 0,-1 0,-1 -1,-1 0,0 0,0 0,-1 0,0 0,-1 0,-1 0,-1 0,-1 0,-1 0,-1 0,-1 0,-1 0,-1 0,-1 0,-1 0,0 0,0 0,0z"/>
  </g>
 </g>
</svg>
