<?xml version="1.0" encoding="UTF-8"?>
<!DOCTYPE svg PUBLIC "-//W3C//DTD SVG 1.1//EN" "http://www.w3.org/Graphics/SVG/1.1/DTD/svg11.dtd">
<!-- Creator: CorelDRAW X7 -->
<svg xmlns="http://www.w3.org/2000/svg" xml:space="preserve" width="565px" height="565px" version="1.1" style="shape-rendering:geometricPrecision; text-rendering:geometricPrecision; image-rendering:optimizeQuality; fill-rule:evenodd; clip-rule:evenodd"
viewBox="0 0 47 47"
 xmlns:xlink="http://www.w3.org/1999/xlink">
 <defs>
  <style type="text/css">
   <![CDATA[
    .fil0 {fill:#06466F;fill-rule:nonzero}
   ]]>
  </style>
 </defs>
 <g id="Слой_x0020_1">
  <metadata id="CorelCorpID_0Corel-Layer"/>
  <g id="_22294774048">
   <path class="fil0" d="M21 34l-8 -9 23 0c0,0 1,-1 1,-1 0,-1 -1,-2 -1,-2l-23 0 8 -8c1,-1 1,-1 1,-1 0,-1 0,-1 -1,-1 0,-1 -1,0 -1,0l-9 10c0,0 -1,1 -1,2l0 0c0,0 1,1 1,2l9 9c0,1 1,1 1,0 1,0 1,-1 0,-1z"/>
   <path class="fil0" d="M24 2c-4,0 -8,1 -11,3 -5,3 -8,8 -10,13 -1,6 -1,11 2,16 3,5 8,9 13,10 6,2 11,1 16,-2 5,-3 9,-7 10,-13 2,-5 1,-11 -2,-16 -3,-5 -7,-8 -13,-10 -2,0 -4,-1 -5,-1zm0 45c-2,0 -4,0 -6,-1 -7,-1 -12,-5 -15,-11 -3,-5 -4,-11 -2,-17 1,-7 5,-12 11,-15l0 1 0 -1c5,-3 12,-4 18,-2 6,1 11,5 14,11 3,5 4,12 2,18 -1,6 -5,11 -11,14 -3,2 -7,3 -11,3z"/>
   <path class="fil0" d="M37 14c0,0 -1,0 -1,0 -2,-3 -6,-6 -10,-6 -1,0 -1,-1 -1,-2 0,0 0,-1 1,-1 5,1 9,4 12,7 1,1 0,2 0,2 0,0 -1,0 -1,0z"/>
  </g>
 </g>
</svg>
