<?xml version="1.0" encoding="UTF-8"?>
<!DOCTYPE svg PUBLIC "-//W3C//DTD SVG 1.1//EN" "http://www.w3.org/Graphics/SVG/1.1/DTD/svg11.dtd">
<!-- Creator: CorelDRAW X7 -->
<svg xmlns="http://www.w3.org/2000/svg" xml:space="preserve" width="307px" height="310px" version="1.1" style="shape-rendering:geometricPrecision; text-rendering:geometricPrecision; image-rendering:optimizeQuality; fill-rule:evenodd; clip-rule:evenodd"
viewBox="0 0 94 95"
 xmlns:xlink="http://www.w3.org/1999/xlink">
 <defs>
  <style type="text/css">
   <![CDATA[
    .fil0 {fill:red;fill-rule:nonzero}
   ]]>
  </style>
 </defs>
 <g id="Слой_x0020_1">
  <metadata id="CorelCorpID_0Corel-Layer"/>
  <g id="_22472638720">
   <path class="fil0" d="M15 73c1,0 2,1 2,2 0,1 -1,2 -2,2 -1,0 -2,-1 -2,-2 0,-1 1,-2 2,-2z"/>
   <path class="fil0" d="M25 79c0,0 0,0 -1,1 0,0 -20,10 -20,10l0 -8 5 -3c1,0 1,-1 1,-2 0,-1 -2,-1 -3,-1l-3 2 0 -16 11 -5c0,0 0,0 0,0 1,0 1,0 1,1l9 20c0,1 0,1 0,1zm68 -17c-1,-4 -6,-5 -9,-4 0,0 0,0 0,0l-12 6c-1,0 -2,2 -1,2 0,1 1,2 2,1l12 -5c2,-1 4,0 5,2 0,0 0,1 0,2 -1,1 -1,2 -2,2l-25 11c-3,2 -8,2 -12,0l-9 -5c-4,-2 -10,-2 -15,0l0 0 -7 -15 10 -4c4,-2 9,-2 14,-1l18 7c1,1 2,2 2,4 -1,2 -3,3 -5,2l-13 -5c-1,0 -2,1 -3,2 0,0 0,2 1,2l14 5c1,0 2,0 3,0 2,0 5,-2 6,-5 1,-3 -1,-7 -4,-8l-18 -7c-6,-2 -11,-2 -17,0l-9 5c-1,-1 -1,-2 -2,-2 -1,-1 -3,-1 -4,0l-12 5c0,0 -1,1 -1,2l0 32c0,1 0,1 1,2 0,0 1,0 1,0 0,0 0,0 1,0l23 -12c1,-1 2,-2 2,-3 1,-1 1,-2 1,-3l0 0c4,-1 8,-1 12,1l9 4c5,2 10,3 15,0l24 -10c4,-2 6,-6 4,-10z"/>
   <path class="fil0" d="M69 34l-4 0c-1,0 -2,-1 -2,-2 0,-1 0,-2 -2,-2 -1,0 -1,1 -1,2 0,3 2,5 5,5l1 0 0 3c0,1 0,1 1,1 1,0 2,0 2,-1l0 -3c3,0 6,-2 6,-6l0 -2c0,-3 -3,-6 -6,-6l-3 0c-2,0 -3,-1 -3,-2l0 -2c0,-1 1,-2 3,-2l3 0c1,0 2,1 2,2 0,1 1,1 2,1 1,0 2,0 2,-1 0,-4 -2,-6 -6,-6l0 0 0 -2c0,-1 -1,-2 -2,-2 -1,0 -1,1 -1,2l0 2c-4,0 -6,3 -6,6l0 2c0,3 2,6 6,6l3 0c1,0 2,1 2,2l0 2c0,2 -1,3 -2,3z"/>
   <path class="fil0" d="M67 4c12,0 22,9 22,21 0,12 -10,22 -22,22 -11,0 -21,-10 -21,-22 0,-12 10,-21 21,-21zm0 46c14,0 26,-11 26,-25 0,-14 -12,-25 -26,-25 -14,0 -25,11 -25,25 0,14 11,25 25,25z"/>
  </g>
 </g>
</svg>
