<?xml version="1.0" encoding="UTF-8"?>
<!DOCTYPE svg PUBLIC "-//W3C//DTD SVG 1.1//EN" "http://www.w3.org/Graphics/SVG/1.1/DTD/svg11.dtd">
<!-- Creator: CorelDRAW X7 -->
<svg xmlns="http://www.w3.org/2000/svg" xml:space="preserve" width="505px" height="520px" version="1.1" style="shape-rendering:geometricPrecision; text-rendering:geometricPrecision; image-rendering:optimizeQuality; fill-rule:evenodd; clip-rule:evenodd"
viewBox="0 0 184 190"
 xmlns:xlink="http://www.w3.org/1999/xlink">
 <defs>
  <style type="text/css">
   <![CDATA[
    .fil0 {fill:red;fill-rule:nonzero}
   ]]>
  </style>
 </defs>
 <g id="Слой_x0020_1">
  <metadata id="CorelCorpID_0Corel-Layer"/>
  <g id="_22283395328">
   <path class="fil0" d="M161 122c2,0 4,1 4,3 0,2 -2,4 -4,4 -2,0 -4,-2 -4,-4 0,-2 2,-3 4,-3z"/>
   <path class="fil0" d="M20 122c2,0 3,1 3,3 0,2 -1,4 -3,4 -2,0 -4,-2 -4,-4 0,-2 2,-3 4,-3z"/>
   <path class="fil0" d="M55 113l0 -36c0,-6 2,-12 6,-18 6,-10 17,-15 29,-15 12,0 24,5 30,15 4,6 5,12 5,18l0 36c0,7 -5,12 -11,13l0 -47c0,-2 -2,-4 -4,-4 -2,0 -3,2 -3,4l0 104 -14 0 0 -52c0,-2 -1,-4 -3,-4 -2,0 -4,2 -4,4l0 52 -11 0 0 -104c0,-2 -2,-4 -4,-4 -2,0 -4,2 -4,4l0 47c-6,-1 -12,-6 -12,-13zm129 73l0 0c0,-2 -1,-3 -3,-3l-32 0 -1 -92c0,-2 -1,-3 -3,-3 0,0 0,0 0,0 -2,0 -4,1 -4,3l0 92 -11 0 0 -41c0,-2 -1,-4 -3,-4 0,0 0,0 0,0 -2,0 -4,2 -4,4l0 41 -9 0 0 -50c11,-1 19,-9 19,-20l0 -36c0,-5 -1,-11 -4,-16 8,0 14,3 20,8 5,6 9,13 9,21l0 21c0,2 1,4 3,4 0,0 0,0 0,0 2,0 4,-2 4,-4l0 -21c0,-10 -4,-19 -11,-26 -4,-4 -9,-7 -15,-9 4,-3 7,-8 7,-14 0,-11 -9,-19 -20,-19 0,0 0,0 0,0 -3,0 -6,0 -9,2 -2,1 -3,3 -2,5 1,2 3,2 5,1 2,-1 4,-1 6,-1 7,0 12,5 12,12 0,7 -5,12 -12,12 0,0 0,0 0,0 -1,0 -1,0 -1,0 -5,-7 -13,-12 -22,-15 5,-4 8,-10 8,-16 0,-12 -10,-22 -22,-22 -12,0 -22,10 -22,22 0,7 4,13 8,17 -7,3 -14,8 -19,14 -1,0 -1,0 -2,0 0,0 -1,0 -1,0 0,0 0,0 0,0 -7,0 -12,-5 -12,-12 0,-7 5,-12 12,-12 2,0 4,1 6,1 2,1 4,1 5,-1 1,-2 0,-4 -2,-5 -3,-2 -6,-2 -9,-2 -11,0 -20,8 -20,19 0,6 3,11 7,15 -14,5 -24,19 -24,34l0 21c0,2 2,4 4,4 2,0 3,-2 3,-4l0 -21c0,-15 13,-28 28,-29 -2,5 -3,11 -3,16l0 36c0,11 8,20 19,20l0 50 -10 0 0 -41c0,-2 -2,-4 -4,-4 -2,0 -3,2 -3,4l0 41 -9 0 0 -92c0,-2 -2,-3 -4,-3 -2,0 -4,1 -4,3l0 92 -29 0c-2,0 -4,1 -4,3 0,2 2,4 4,4l177 0c2,0 3,-2 3,-4zm-95 -179c8,0 14,7 14,15 0,8 -6,14 -14,14 -8,0 -14,-6 -14,-14 0,-8 6,-15 14,-15z"/>
  </g>
 </g>
</svg>
