<?xml version="1.0" encoding="utf-8"?>
<!-- Svg Vector Icons : http://www.onlinewebfonts.com/icon -->
<!DOCTYPE svg PUBLIC "-//W3C//DTD SVG 1.1//EN" "http://www.w3.org/Graphics/SVG/1.1/DTD/svg11.dtd">
<svg version="1.1" xmlns="http://www.w3.org/2000/svg" xmlns:xlink="http://www.w3.org/1999/xlink" x="0px" y="0px" viewBox="0 0 1000 1000" enable-background="new 0 0 1000 1000" xml:space="preserve">
<metadata> Svg Vector Icons : http://www.onlinewebfonts.com/icon </metadata>
<g fill="#186D9C"><g transform="translate(0.000000,511.000000) scale(0.100000,-0.100000)"><path d="M5724.8,4990.3c-102-28.8-221.7-157.4-250.5-268.3c-42.1-155.2,19.9-345.9,144.1-425.7c28.8-17.7,168.5-64.3,310.4-102c729.5-190.7,1319.3-532.1,1842.5-1068.7c113.1-113.1,259.4-279.4,328.2-368.1c647.4-851.4,929-1968.9,756.1-3008.8c-44.3-272.7-42.1-361.4,17.7-465.6c137.5-241.7,516.6-250.5,663-15.5c121.9,197.3,188.5,1119.7,119.7,1662.9C9469.7,2385,8667,3633.3,7418.7,4407.1c-381.4,237.2-847,432.4-1325.9,552.1C5857.8,5019.1,5833.4,5021.3,5724.8,4990.3z"/><path d="M1481,4130c-410.2-270.5-527.7-361.4-674-514.4c-208.4-221.7-303.8-372.5-390.2-627.5C170.6,2274.2,376.8,1272,1042-40.7c498.9-986.7,1330.3-2257.1,2002.2-3059.8c616.4-736.1,1139.7-1190.7,1682.9-1463.4c323.7-159.6,578.7-226.2,880.2-226.2c419.1,2.2,649.6,95.3,1352.5,543.2c445.6,286,532.1,359.2,532.1,454.5c0,42.1-246.1,434.6-820.4,1312.6C5791.3-1136,5791.3-1133.8,5649.4-1187c-35.5-15.5-228.4-130.8-427.9-259.4c-297.1-192.9-374.7-235-443.4-235c-141.9,0-332.6,119.7-598.7,376.9C3687.1-830,3245.9-138.2,3030.8,498.1c-77.6,228.4-108.6,525.5-64.3,629.7c17.7,44.3,133,130.8,403.5,306c208.4,133,399.1,268.3,423.5,299.3c28.8,35.5,39.9,77.6,35.5,122c-8.9,68.7-1587.5,2525.4-1656.3,2576.4c-20,15.5-71,28.8-115.3,28.8C1993.1,4460.4,1893.4,4402.7,1481,4130z"/><path d="M5263.6,2985.9c-153-82.1-210.6-177.4-210.6-343.7c0-224,108.6-341.5,376.9-410.2c323.7-82.1,616.4-250.5,871.4-496.7C6676,1373.9,6877.7,895,6875.5,369.5c0-133-11.1-297.1-24.4-363.6c-55.4-270.5,115.3-494.5,374.7-494.5c177.4,0,328.1,115.3,376.9,288.2c46.5,166.3,70.9,483.4,57.6,709.5c-44.3,700.6-306,1277.1-798.2,1769.4c-235,235-467.8,403.5-738.3,532.1C5746.9,2988.1,5398.8,3059.1,5263.6,2985.9z"/></g></g>
</svg>
