<?xml version="1.0" encoding="UTF-8"?>
<!DOCTYPE svg PUBLIC "-//W3C//DTD SVG 1.1//EN" "http://www.w3.org/Graphics/SVG/1.1/DTD/svg11.dtd">
<!-- Creator: CorelDRAW X7 -->
<svg xmlns="http://www.w3.org/2000/svg" xml:space="preserve" width="510px" height="515px" version="1.1" style="shape-rendering:geometricPrecision; text-rendering:geometricPrecision; image-rendering:optimizeQuality; fill-rule:evenodd; clip-rule:evenodd"
viewBox="0 0 55 56"
 xmlns:xlink="http://www.w3.org/1999/xlink">
 <defs>
  <style type="text/css">
   <![CDATA[
    .fil0 {fill:red;fill-rule:nonzero}
   ]]>
  </style>
 </defs>
 <g id="Слой_x0020_1">
  <metadata id="CorelCorpID_0Corel-Layer"/>
  <g id="_22351142144">
   <path class="fil0" d="M40 11c1,0 1,1 2,1 0,0 0,1 1,1 0,0 0,-1 0,-1 1,0 1,-1 0,-1 0,-1 -1,-1 -2,-2 0,0 -1,0 -1,0 0,1 0,1 0,2z"/>
   <path class="fil0" d="M10 24c-4,0 -6,3 -6,6 0,3 2,6 6,6 3,0 5,-3 5,-6 0,-3 -2,-6 -5,-6zm0 9c-2,0 -4,-1 -4,-3 0,-2 2,-4 4,-4 2,0 3,2 3,4 0,2 -1,3 -3,3z"/>
   <path class="fil0" d="M34 10c0,-4 -3,-6 -6,-6 -4,0 -6,2 -6,6 0,3 2,5 6,5 3,0 6,-2 6,-5zm-10 0c0,-2 2,-4 4,-4 2,0 3,2 3,4 0,2 -1,3 -3,3 -2,0 -4,-1 -4,-3z"/>
   <path class="fil0" d="M51 31c0,-1 0,-2 0,-3 0,-6 -2,-10 -5,-14 0,-1 -1,-1 -1,-1 -1,1 -1,1 -1,2 3,4 5,8 5,13 0,0 0,1 -1,2 0,0 -1,-1 -2,-1 -6,0 -10,5 -10,10 0,2 1,4 2,7 -3,1 -7,3 -10,3 -6,0 -11,-3 -15,-6 1,-1 1,-2 2,-3 3,-5 4,-8 4,-10 0,-5 -4,-10 -9,-10 -1,0 -1,0 -2,0 2,-5 5,-9 10,-11 0,0 0,0 0,1 0,2 2,5 5,10 2,3 4,6 4,6 0,0 0,0 1,0 0,0 0,0 1,0 0,0 2,-3 4,-6 3,-5 4,-8 4,-10 0,-6 -4,-10 -9,-10 -4,0 -8,3 -9,6 -7,3 -12,8 -14,15 -3,2 -5,5 -5,9 0,2 1,5 4,10 3,3 5,6 5,6 0,0 0,1 1,1 0,0 0,-1 0,-1 0,0 1,-1 2,-2 2,2 4,4 6,5 3,1 6,2 10,2 4,0 8,-1 12,-4 0,1 0,2 1,2 2,4 4,6 4,6 0,1 0,1 1,1 0,0 0,0 1,-1 0,0 2,-2 4,-6 3,-4 4,-8 4,-10 0,-3 -2,-7 -4,-8zm-23 -29c4,0 7,4 7,8 0,3 -5,10 -7,13 -3,-3 -8,-10 -8,-13 0,-4 4,-8 8,-8zm-18 42c-3,-4 -8,-11 -8,-14 0,-4 4,-8 8,-8 4,0 7,4 7,8 0,3 -5,10 -7,14zm36 9c-3,-4 -8,-11 -8,-14 0,-4 4,-7 8,-7 4,0 7,3 7,7 0,3 -5,10 -7,14z"/>
   <path class="fil0" d="M46 33c-3,0 -6,3 -6,6 0,3 3,6 6,6 3,0 6,-3 6,-6 0,-3 -3,-6 -6,-6zm0 10c-2,0 -4,-2 -4,-4 0,-2 2,-4 4,-4 2,0 3,2 3,4 0,2 -1,4 -3,4z"/>
  </g>
 </g>
</svg>
