<?xml version="1.0" encoding="UTF-8"?>
<!DOCTYPE svg PUBLIC "-//W3C//DTD SVG 1.1//EN" "http://www.w3.org/Graphics/SVG/1.1/DTD/svg11.dtd">
<!-- Creator: CorelDRAW X7 -->
<svg xmlns="http://www.w3.org/2000/svg" xml:space="preserve" width="306px" height="313px" version="1.1" style="shape-rendering:geometricPrecision; text-rendering:geometricPrecision; image-rendering:optimizeQuality; fill-rule:evenodd; clip-rule:evenodd"
viewBox="0 0 25 25"
 xmlns:xlink="http://www.w3.org/1999/xlink">
 <defs>
  <style type="text/css">
   <![CDATA[
    .fil0 {fill:red;fill-rule:nonzero}
   ]]>
  </style>
 </defs>
 <g id="Слой_x0020_1">
  <metadata id="CorelCorpID_0Corel-Layer"/>
  <path class="fil0" d="M17 3c0,-1 0,-1 1,-2 0,0 0,0 1,0l0 0c0,0 0,0 0,0 1,0 1,1 1,2l0 4c0,0 0,0 0,0l-3 0 0 -4zm-7 18c0,0 0,1 0,1 0,0 0,0 0,0 -1,0 -1,0 -1,0 0,0 0,-1 1,-1zm-2 1c0,0 0,0 0,0 -1,-1 -1,-1 -2,-1l0 1c-1,0 -1,0 -1,0l0 -1c0,0 -1,0 -1,0l-1 0c0,0 0,1 0,1 0,0 0,0 0,0l1 0c0,0 0,0 1,0l0 0c0,1 0,1 1,1 0,0 0,0 0,0l1 -1c0,0 0,0 0,0 0,0 1,1 1,1 0,0 0,0 0,-1 1,0 1,0 1,0 -1,0 -1,-1 -1,0zm15 2l-3 0 -1 -4c0,-1 1,-1 1,-1l3 0c0,0 1,0 1,1l-1 4zm2 -4l0 0c0,-1 -1,-2 -2,-2l0 -1 1 -2c0,0 0,0 0,-1l-2 -4c0,0 0,0 0,0 0,0 0,0 0,0 -1,0 -1,0 -1,0l-2 4c0,1 0,1 0,1l1 2 0 1c-1,0 -2,1 -2,2 0,0 0,0 0,0l1 5c0,0 0,0 0,0l5 0c0,0 0,0 0,0l1 -5c0,0 0,0 0,0zm-4 -8l0 2c0,1 0,1 1,1 0,0 0,0 0,-1l0 -2 1 3 0 1 -2 0 -1 -1 1 -3zm0 5l1 0 0 1 -1 0 0 -1zm-18 1l6 0c0,0 0,0 0,-1 0,0 0,0 0,0l-6 0c0,0 0,0 0,0 0,1 0,1 0,1zm0 -2l11 0c0,0 0,-1 0,-1 0,0 0,0 0,0l-11 0c0,0 0,0 0,0 0,0 0,1 0,1zm0 -2l11 0c0,0 0,-1 0,-1 0,0 0,0 0,0l-11 0c0,0 0,0 0,0 0,0 0,1 0,1zm4 -6c0,0 0,0 0,0 0,0 0,-1 0,-1 -1,0 -1,0 -1,0 0,-1 0,-1 1,-1 0,0 0,0 0,0 0,-1 0,-1 0,-1 -1,0 -2,1 -2,2 0,1 1,1 2,1zm0 -4c1,0 2,1 2,3 0,1 -1,3 -2,3 -2,0 -3,-2 -3,-3 0,-2 1,-3 3,-3zm0 7c2,0 3,-2 3,-4 0,-2 -1,-4 -3,-4 -3,0 -4,2 -4,4 0,2 1,4 4,4zm12 -11l-16 0c-2,0 -3,1 -3,3l0 0 0 0 0 20c0,1 1,2 2,2l13 0c1,0 2,-1 2,-2l0 -15 3 0c1,0 1,-1 1,-1l0 -4c0,-2 -1,-3 -2,-3 0,0 0,0 0,0l0 0zm-3 3c0,0 0,0 0,0l0 20c0,1 0,1 -1,1l-13 0c-1,0 -1,0 -1,-1l0 -20c0,-1 1,-2 2,-2l14 0c-1,0 -1,1 -1,2z"/>
 </g>
</svg>
