<?xml version="1.0" encoding="UTF-8"?>
<!DOCTYPE svg PUBLIC "-//W3C//DTD SVG 1.1//EN" "http://www.w3.org/Graphics/SVG/1.1/DTD/svg11.dtd">
<!-- Creator: CorelDRAW X7 -->
<svg xmlns="http://www.w3.org/2000/svg" xml:space="preserve" width="565px" height="565px" version="1.1" style="shape-rendering:geometricPrecision; text-rendering:geometricPrecision; image-rendering:optimizeQuality; fill-rule:evenodd; clip-rule:evenodd"
viewBox="0 0 69 69"
 xmlns:xlink="http://www.w3.org/1999/xlink">
 <defs>
  <style type="text/css">
   <![CDATA[
    .fil0 {fill:#878788;fill-rule:nonzero}
   ]]>
  </style>
 </defs>
 <g id="Слой_x0020_1">
  <metadata id="CorelCorpID_0Corel-Layer"/>
  <g id="_22294775552">
   <path class="fil0" d="M38 49l12 -13 -33 0c-1,0 -2,0 -2,-1 0,-1 1,-2 2,-2l33 0 -12 -13c0,0 0,-1 0,-1 0,-1 0,-1 0,-2 1,0 2,0 2,1l13 14c1,1 1,2 1,3l0 0c0,1 0,2 -1,2l-13 15c0,0 -1,0 -2,0 -1,-1 -1,-2 0,-3z"/>
   <path class="fil0" d="M35 4c5,0 10,1 15,4 7,4 13,11 15,19 2,8 1,16 -3,23 -5,7 -11,13 -19,15 -8,2 -17,1 -24,-3 -7,-5 -12,-11 -14,-19 -2,-8 -1,-17 3,-24 4,-7 11,-12 19,-14 2,-1 5,-1 8,-1zm0 65c3,0 6,0 9,-1 9,-2 16,-8 21,-16 4,-8 6,-17 3,-26 -2,-9 -8,-17 -16,-21l-1 1 1 -1c-8,-5 -17,-6 -26,-4 -9,3 -17,8 -21,16 -5,8 -6,18 -4,27 3,9 8,16 16,21 6,3 12,4 18,4z"/>
   <path class="fil0" d="M15 21c0,0 1,0 1,-1 4,-4 10,-8 16,-8 1,-1 1,-1 1,-2 0,-1 -1,-2 -2,-2 -7,1 -13,5 -18,10 0,1 0,2 1,3 0,0 0,0 1,0z"/>
  </g>
 </g>
</svg>
