<?xml version="1.0" encoding="iso-8859-1"?>
<!-- Generator: Adobe Illustrator 19.0.0, SVG Export Plug-In . SVG Version: 6.00 Build 0)  -->
<svg version="1.1" id="Capa_1" xmlns="http://www.w3.org/2000/svg" xmlns:xlink="http://www.w3.org/1999/xlink" x="0px" y="0px"
  viewBox="0 -1 51 70"
  width="400"  style="enable-background:new 0 0 54.309 54.309;" xml:space="preserve">
	<g>
		<path fill="none" stroke="#FF0000" stroke-width="3%" d="M49.785,20.433C49.785,9.147,40.647,0,29.376,0C18.102,0,8.967,9.147,8.967,20.433c0,0.754,0.043,1.498,0.122,2.23
			c-1.508,3.065-4.296,8.518-4.341,8.619c-0.144,0.323-0.224,0.68-0.224,1.057c0,1.43,1.158,2.59,2.585,2.59h2.596l-0.017,7.387
			c0,1.989,1.611,3.601,3.598,3.601l7.46-0.003l2.498,8.395l24.3-7.39l-3.676-12.112C47.522,31.114,49.785,26.042,49.785,20.433z
			 M37.959,29.407l-2.343-1.353c-0.895,0.766-1.93,1.366-3.063,1.766v2.704c-1.032,0.283-2.113,0.445-3.232,0.445
			c-1.12,0-2.201-0.164-3.232-0.445V29.82c-1.133-0.4-2.168-1.001-3.063-1.766l-2.343,1.353c-1.537-1.522-2.66-3.449-3.227-5.601
			l2.337-1.35c-0.106-0.575-0.168-1.164-0.168-1.769c0-0.604,0.062-1.195,0.168-1.769l-2.337-1.35
			c0.567-2.152,1.69-4.08,3.227-5.601l2.343,1.353c0.895-0.766,1.93-1.366,3.063-1.766V8.85c1.031-0.282,2.111-0.445,3.231-0.445
			s2.2,0.164,3.232,0.445v2.704c1.133,0.4,2.168,1.001,3.063,1.766l2.343-1.353c1.536,1.522,2.661,3.449,3.227,5.601l-2.338,1.35
			c0.107,0.574,0.17,1.164,0.17,1.769c0,0.605-0.063,1.195-0.169,1.769l2.338,1.35C40.621,25.958,39.496,27.886,37.959,29.407z"/>
	</g>


	<g  >
		<circle  fill="none" stroke="#FF0000" stroke-width="3%" cx="29.324" cy="20.687" r="4.525"/>
	</g>

</svg>
