<?xml version="1.0" encoding="UTF-8"?>
<!DOCTYPE svg PUBLIC "-//W3C//DTD SVG 1.1//EN" "http://www.w3.org/Graphics/SVG/1.1/DTD/svg11.dtd">
<!-- Creator: CorelDRAW X7 -->
<svg xmlns="http://www.w3.org/2000/svg" xml:space="preserve" width="527px" height="446px" version="1.1" style="shape-rendering:geometricPrecision; text-rendering:geometricPrecision; image-rendering:optimizeQuality; fill-rule:evenodd; clip-rule:evenodd"
viewBox="0 0 49 42"
 xmlns:xlink="http://www.w3.org/1999/xlink">
 <defs>
  <style type="text/css">
   <![CDATA[
    .fil0 {fill:red;fill-rule:nonzero}
   ]]>
  </style>
 </defs>
 <g id="Слой_x0020_1">
  <metadata id="CorelCorpID_0Corel-Layer"/>
  <g id="_22288048464">
   <path class="fil0" d="M11 26c1,0 1,1 1,1 0,1 0,1 -1,1 0,0 -1,0 -1,-1 0,0 1,-1 1,-1z"/>
   <path class="fil0" d="M47 19c0,1 0,2 -2,2l-2 0c-1,0 -1,1 -1,1 0,1 0,1 1,1l2 0c2,0 2,1 2,2l0 0c0,1 0,2 -2,2l-2 0c-1,0 -1,1 -1,1 0,1 0,1 1,1l2 0 0 0c2,0 2,1 2,2l0 1c0,1 0,2 -2,2l-2 0c-1,0 -1,0 -1,1 0,0 0,1 1,1l2 0 0 0c2,0 2,1 2,2 0,1 0,2 -2,2l-20 0c-2,0 -4,-1 -5,-2l-1 -1 0 -18c1,-1 2,-1 3,-2 3,-3 6,-6 7,-10 1,-1 1,-2 2,-4 0,0 0,0 0,-1 0,0 1,0 1,0 0,0 0,0 0,0 1,0 2,1 2,2 0,0 0,1 0,1 0,0 0,1 0,1 0,4 -1,7 -3,9 0,1 0,1 0,1 0,1 1,1 1,1l13 0c2,0 2,1 2,2l0 0 0 0zm-15 -19l0 0c0,0 -1,0 -2,1 -1,1 -1,1 -1,2 -1,1 -1,2 -1,3 -2,4 -4,7 -7,9 -1,1 -2,1 -2,2 -1,-1 -2,-2 -3,-2l-15 0c-1,0 -1,0 -1,1l0 25c0,0 0,1 1,1l15 0c1,0 2,-1 3,-3 1,2 4,3 6,3l20 0c3,0 4,-2 4,-4 0,-1 0,-3 -1,-3 1,-1 1,-2 1,-3l0 -1c0,-1 0,-2 -1,-3 1,0 1,-1 1,-3l0 0c0,-1 0,-2 -1,-3 1,-1 1,-2 1,-3l0 0c0,-2 -1,-4 -4,-4l-11 0c1,-3 2,-6 2,-9 0,0 0,-1 0,-1 0,0 0,-1 0,-1 0,-2 -2,-4 -4,-4zm-16 40l-4 0 0 -9c0,0 0,0 -1,0 0,0 -1,0 -1,0l0 9 -8 0 0 -23 14 0c0,0 1,0 1,1l0 1c0,0 0,0 0,0l0 20c0,1 -1,1 -1,1z"/>
  </g>
 </g>
</svg>
