<?xml version="1.0" encoding="iso-8859-1"?>
<!-- Generator: Adobe Illustrator 18.1.1, SVG Export Plug-In . SVG Version: 6.00 Build 0)  -->
<svg version="1.1" id="Capa_1" xmlns="http://www.w3.org/2000/svg" xmlns:xlink="http://www.w3.org/1999/xlink" x="0px" y="0px"
	 viewBox="0 0 250 250" style="enable-background:new 0 0 250 250;" xml:space="preserve">
<path fill="#FF0000" color-rendering="auto" image-rendering="auto" shape-rendering="auto" color-interpolation="sRGB" d="M93.764,0
	c-2.761,0-5,2.239-5,5v20c0,2.761,2.239,5,5,5h15v11.074c-50.841,7.293-90,51.088-90,103.926c0,57.931,47.069,105,105,105
	c57.931,0,105-47.069,105-105c0-18.199-4.646-35.325-12.814-50.258l13.777-13.781c2.224-2.169,1.952-5.82-0.568-7.637
	l-41.859-41.859c-0.956-0.955-2.258-1.483-3.609-1.463c-1.3,0.019-2.541,0.544-3.461,1.463l-16.453,16.453
	c-7.901-3.265-16.283-5.592-25.012-6.844V30h15c2.761,0,5-2.239,5-5V5c0-2.761-2.239-5-5-5L93.764,0z M98.764,10h50v10h-15
	c-2.761,0-5,2.239-5,5v15.121h-10V25c0-2.761-2.239-5-5-5h-15L98.764,10z M183.764,42.07l35.355,35.357l-8.543,8.547
	c-9.504-13.94-22.275-25.479-37.207-33.51L183.764,42.07z M123.764,50c34.382,0,64.456,18.2,81.131,45.504
	c0.23,0.711,0.617,1.362,1.133,1.904c8.101,13.989,12.736,30.241,12.736,47.592c0,52.526-42.474,95-95,95c-52.526,0-95-42.474-95-95
	S71.238,50,123.764,50L123.764,50z M123.764,60c-46.885,0-85,38.115-85,85s38.115,85,85,85c46.885,0,85-38.115,85-85
	S170.649,60,123.764,60z M118.764,70.184v14.838c-0.096,6.762,10.096,6.762,10,0V70.184c16.969,1.113,32.373,7.842,44.389,18.357
	l-3.441,3.441c-4.68,4.715,2.357,11.752,7.072,7.072l3.439-3.442c10.516,12.016,17.246,27.419,18.359,44.389h-14.818
	c-6.762-0.096-6.762,10.096,0,10h14.818c-1.114,16.969-7.844,32.374-18.359,44.389l-3.426-3.426
	c-0.942-0.969-2.236-1.516-3.588-1.516c-4.488,0-6.703,5.457-3.484,8.586l3.426,3.426c-12.015,10.514-27.419,17.242-44.387,18.356
	v-14.815c0.04-2.819-2.257-5.113-5.076-5.07c-2.759,0.042-4.963,2.311-4.924,5.07v14.815c-16.969-1.114-32.372-7.844-44.387-18.359
	l3.424-3.424c3.271-3.179,0.926-8.719-3.633-8.584c-1.299,0.039-2.532,0.582-3.438,1.514l-3.426,3.426
	c-10.514-12.015-17.244-27.419-18.357-44.387h14.816c6.762,0.096,6.762-10.096,0-10H48.948c1.113-16.969,7.842-32.373,18.357-44.389
	l3.426,3.426c4.715,4.83,11.901-2.359,7.07-7.072l-3.424-3.424C86.392,78.028,101.795,71.297,118.764,70.184L118.764,70.184z
	 M123.764,100c-2.761,0-5,2.239-5,5v40c0,2.761,2.239,5,5,5h40c2.761,0,5-2.239,5-5C168.764,120.206,148.558,100,123.764,100z
	 M128.764,110.502c15.335,2.196,27.302,14.163,29.498,29.498h-29.498V110.502z"/>
<g>
</g>
<g>
</g>
<g>
</g>
<g>
</g>
<g>
</g>
<g>
</g>
<g>
</g>
<g>
</g>
<g>
</g>
<g>
</g>
<g>
</g>
<g>
</g>
<g>
</g>
<g>
</g>
<g>
</g>
</svg>
