<?xml version="1.0" encoding="UTF-8"?>
<!DOCTYPE svg PUBLIC "-//W3C//DTD SVG 1.1//EN" "http://www.w3.org/Graphics/SVG/1.1/DTD/svg11.dtd">
<!-- Creator: CorelDRAW X8 -->
<svg xmlns="http://www.w3.org/2000/svg" xml:space="preserve" width="748px" height="748px" version="1.1" style="shape-rendering:geometricPrecision; text-rendering:geometricPrecision; image-rendering:optimizeQuality; fill-rule:evenodd; clip-rule:evenodd"
viewBox="0 0 490 490"
 xmlns:xlink="http://www.w3.org/1999/xlink">
 <defs>
  <style type="text/css">
   <![CDATA[
    .fil0 {fill:#186D9C}
   ]]>
  </style>
 </defs>
 <g id="Слой_x0020_1">
  <metadata id="CorelCorpID_0Corel-Layer"/>
  <path class="fil0" d="M231 386l0 -259 -103 92c-5,5 -14,4 -19,-1 -5,-6 -4,-14 1,-19l113 -100c6,-6 14,-9 22,-9l0 0c8,0 16,3 22,9l112 100c6,5 6,13 1,19 -2,3 -6,4 -10,4 -3,0 -6,-1 -9,-3l-103 -92 0 259c0,8 -6,14 -13,14 -8,0 -14,-6 -14,-14zm121 16c0,-5 2,-9 5,-12 38,-29 64,-73 70,-121 1,-7 8,-13 16,-12 8,1 13,9 12,16 -7,55 -37,106 -80,140 -7,5 -15,4 -20,-3 -2,-2 -3,-5 -3,-8zm138 -158c0,-42 -11,-84 -33,-122 -33,-56 -86,-97 -149,-114 -63,-16 -129,-8 -186,25 -56,33 -97,85 -114,149 -16,63 -8,129 25,185 33,57 85,97 149,114 63,17 129,9 185,-24 57,-33 97,-86 114,-149 6,-21 9,-42 9,-64z"/>
 </g>
</svg>
