<?xml version="1.0" encoding="UTF-8"?>
<!DOCTYPE svg PUBLIC "-//W3C//DTD SVG 1.0//EN" "http://www.w3.org/TR/2001/REC-SVG-20010904/DTD/svg10.dtd">
<!-- Creator: CorelDRAW X7 -->
<svg xmlns="http://www.w3.org/2000/svg" xml:space="preserve" width="200px" version="1.0" style="shape-rendering:geometricPrecision; text-rendering:geometricPrecision; image-rendering:optimizeQuality; fill-rule:evenodd; clip-rule:evenodd"
viewBox="0 0 2136 2503"
 xmlns:xlink="http://www.w3.org/1999/xlink">
 <defs>
  <style type="text/css">
   <![CDATA[
    .str0 {stroke:#FEFEFE;stroke-width:26.7017;stroke-linecap:round;stroke-linejoin:round}
    .fil4 {fill:none;fill-rule:nonzero}
    .fil1 {fill:white}
    .fil5 {fill:#264796;fill-rule:nonzero}
    .fil0 {fill:url(#id0)}
    .fil2 {fill:url(#id1)}
    .fil3 {fill:url(#id2);fill-rule:nonzero}
   ]]>
  </style>
  <linearGradient id="id0" gradientUnits="userSpaceOnUse" x1="1044.21" y1="66.1009" x2="1044.21" y2="1586.43">
   <stop offset="0" style="stop-opacity:1; stop-color:#EF7F1A"/>
   <stop offset="1" style="stop-opacity:1; stop-color:#FFED00"/>
  </linearGradient>
  <linearGradient id="id1" gradientUnits="userSpaceOnUse" x1="1062.03" y1="512.111" x2="1062.03" y2="1548.44">
   <stop offset="0" style="stop-opacity:1; stop-color:#006CB5"/>
   <stop offset="1" style="stop-opacity:1; stop-color:#00A0E3"/>
  </linearGradient>
  <linearGradient id="id2" gradientUnits="userSpaceOnUse" xlink:href="#id1" x1="1064.23" y1="1824.15" x2="1064.23" y2="2249.74">
  </linearGradient>
 </defs>
 <g id="Layer_x0020_1">
  <metadata id="CorelCorpID_0Corel-Layer"/>
  <g id="_785133798464">
   <g>
    <path class="fil0" d="M1044 0c546,0 988,443 988,988 0,256 -97,489 -256,665 -252,-42 -525,-65 -811,-65 -233,0 -459,15 -671,44 -148,-173 -238,-398 -238,-644 0,-545 442,-988 988,-988z"/>
    <path class="fil1" d="M443 1122c-3,-3 -4,-5 -6,-7 -14,-18 -29,-34 -45,-50 -20,-21 -29,-21 -49,-34l-23 -2c31,24 62,48 94,71 9,8 19,15 29,22zm-205 -132c11,-47 78,-107 111,-136l-14 7 13 -53c7,-29 40,-51 65,-66 13,-8 26,-15 40,-22 2,-1 6,-3 10,-6 -4,-8 -6,-13 -6,-27l0 -6c0,-38 36,-71 72,-87 -2,-6 -4,-12 -4,-23 0,-13 3,-26 9,-38 5,-10 12,-19 20,-27l-24 8 12 -44c13,-48 95,-60 135,-75 4,-2 7,-4 9,-8 10,-14 13,-24 29,-35 22,-17 54,-21 82,-21l36 0c32,0 68,6 99,13 11,2 34,12 44,18 3,2 5,3 7,5 1,-2 2,-4 3,-6 12,-22 34,-34 58,-39 22,-4 44,2 64,-1 4,0 6,-1 9,-3 11,-5 19,-9 31,-12l30 -7 0 76 15 -1c8,-1 12,-3 19,-5 12,-4 23,-6 36,-6l15 0c12,0 21,3 30,6 11,-30 57,-43 86,-43l53 0 92 3 0 48c0,7 0,27 3,37l93 -11 50 6 -11 29c-7,21 -40,38 -40,49l0 27c0,23 38,57 46,90 1,0 2,0 2,0l27 0 -2 27c-3,38 -37,55 -37,92 0,22 26,65 49,65l48 0 -8 31c-4,14 -18,27 -28,37 -11,13 -23,25 -32,39 -7,11 -13,25 -13,38l0 84c0,17 24,69 36,81 22,22 66,51 73,81l9 31 -33 0c-27,0 -56,-9 -83,-18 -22,-8 -61,-24 -84,-24l-44 0 0 14c20,10 82,18 100,22 77,16 81,36 84,111 2,56 -9,105 -29,157 -7,21 -21,52 -27,77 106,27 383,112 423,167l40 53 -65 -14c-319,-72 -639,-102 -966,-102 -352,0 -704,31 -1055,60l-50 4 27 -42c31,-49 196,-98 251,-115 50,-14 100,-28 151,-39 18,-5 40,-10 61,-13 -7,-9 -12,-19 -12,-45l0 -5c0,-5 0,-9 1,-12l-12 0 1 -26 1 -63c1,-16 15,-35 20,-49l0 -15c-18,-29 -153,-119 -186,-145 -33,-25 -67,-51 -100,-76 -22,-17 -43,-33 -65,-50 -10,-7 -22,-17 -33,-24l-52 -46 6 -34 58 22c22,2 46,17 65,29 9,7 28,23 41,31 5,-4 10,-8 15,-10zm626 -557l9 95 186 -18 -1 5c3,-2 7,-5 10,-7 7,-5 45,-27 45,-36l0 -21c0,-6 -1,-12 -2,-17 -2,0 -3,0 -5,0l-26 0c-22,0 -24,1 -28,22l-5 19 -51 0c-31,0 -74,-19 -103,-31 -9,-3 -18,-7 -29,-11zm315 -1c1,9 2,17 3,23 5,-1 10,-2 14,-3 14,-4 29,-8 43,-11 -15,-3 -29,-6 -46,-8l-14 -1zm209 6l10 0 0 25c13,-9 27,-15 41,-21 -4,-2 -8,-3 -11,-5 -16,-6 -28,-10 -42,-12l3 12 -1 1zm-47 96c-9,13 -16,27 -16,37l0 11c0,9 6,20 13,29l0 -61c0,-5 1,-10 3,-16zm-595 17c-3,1 -6,2 -9,2 -15,3 -62,14 -81,26l7 29c15,-9 52,-34 83,-57zm473 92l-25 0 0 7c7,-1 18,-4 25,-7zm-146 46c15,-6 32,-14 40,-20l0 -5c-16,5 -32,14 -40,25zm-424 114l-3 0 0 -34c-6,9 -11,17 -16,26 -9,15 -17,31 -23,47 11,-15 21,-25 42,-39zm-72 194c-1,14 -2,27 -2,41 2,-1 3,-3 5,-4 3,-3 6,-5 9,-7 -3,-9 -8,-21 -12,-30zm149 -19c15,-2 33,-6 47,-9l-8 0c-6,0 -12,0 -18,2 -7,2 -14,4 -21,7zm358 -75c13,-6 25,-13 33,-18 -10,4 -23,11 -33,18zm133 482c0,-2 1,-4 1,-6 0,-4 -1,-7 -2,-9 0,5 1,10 1,15zm-8 -154c19,-14 44,-22 70,-31 12,-4 25,-7 38,-9 -14,-2 -26,-2 -33,-2 -21,0 -53,5 -74,9 -1,0 -1,0 -2,1 -1,5 0,20 1,32zm-528 25c33,3 94,13 117,9l0 -14 -82 -10 -23 0c-4,1 -12,8 -13,12 0,1 0,2 1,3zm440 151c-18,-19 -74,-52 -130,-80 7,9 14,19 25,30 20,17 37,29 61,40 6,4 30,9 44,10z"/>
    <path class="fil2" d="M1000 1375c-23,-20 -27,-42 -56,-54 -19,-9 -69,-13 -69,-36l0 -32c49,4 273,120 273,152l0 11c0,28 -68,10 -82,3 -27,-12 -45,-25 -66,-44zm-308 -159l26 0 94 12c7,8 11,8 11,20l0 26c0,33 -130,5 -157,5 -4,-6 -11,-17 -11,-26 0,-17 22,-37 37,-37zm503 205c-4,-45 -10,-127 -10,-173 0,-39 -12,-68 20,-74 17,-4 59,-10 79,-10 39,0 121,9 137,31 -26,13 -95,15 -135,29 -42,14 -85,24 -85,76l0 16c0,27 41,19 41,63 0,30 -19,40 -47,42zm-147 -514c0,-19 95,-75 95,-37l0 21c0,16 -84,52 -95,53l0 -37zm-498 152c0,-84 11,-155 32,-220 20,-63 80,-130 89,-163l10 0c-2,26 -10,19 -10,42l0 58c51,-4 75,-53 147,-53l0 21c0,17 -104,46 -128,61 -63,40 -54,40 -93,97l-6 47c-2,19 18,58 22,73 30,-8 86,-78 152,-78l53 0 0 26c0,21 -95,34 -116,37 -39,4 -82,25 -106,46 -28,24 -26,75 -19,121 7,42 44,75 47,100 -66,-1 -74,-137 -74,-210l0 -5zm493 -357c0,-37 54,-68 95,-68l0 42c0,17 -72,43 -90,47 -3,-14 -5,-9 -5,-21zm126 -62c0,-13 9,-21 21,-21l42 0c20,0 49,19 73,21 -7,27 -41,14 -70,24 -17,6 -66,23 -66,-4l0 -20zm-540 -69c21,-32 134,-51 189,-52 -6,22 -118,95 -142,110 -27,16 -131,98 -152,100l1 -48c36,-8 96,-40 114,-68l-10 -42zm787 567l21 20 31 6 0 31c-30,-2 -44,-32 -58,-52 -17,-24 -44,-84 -43,-126l7 -136 -48 -5 -15 0c-39,0 -137,27 -137,0l0 -27c12,-2 12,-5 27,-5l31 -2 142 18c-3,-31 -32,-60 -32,-89l-1 -27 12 -94c-25,-7 -53,-38 -53,-68l0 -11c0,-37 44,-86 74,-94l0 -16c-17,-1 -19,-5 -37,-5l-32 0c-44,0 -115,26 -136,26 -16,0 -16,-84 -16,-105l0 -47c-19,5 -24,14 -42,16 -18,2 -45,-3 -62,1 -61,12 -42,62 -58,62 -6,0 -14,-17 -27,-26 -8,-4 -30,-14 -37,-15 -27,-6 -64,-12 -94,-12l-36 0c-99,0 -71,47 -111,62 -34,13 -112,27 -120,59l152 -47c5,-21 12,-32 37,-32l63 0c53,0 135,53 178,53l31 0c7,-30 16,-42 53,-42l26 0c14,0 15,2 26,5 2,16 6,19 6,37l0 21c0,34 -67,56 -96,87 -40,44 -30,83 -30,149l0 15 -16 0c-2,-25 -11,-19 -11,-42l0 -47c0,-52 34,-57 42,-96l-176 17 -13 -138 -120 34c-44,29 -168,46 -168,120 0,19 6,19 11,37 -30,8 -79,38 -79,73l0 6c0,22 10,21 10,36 0,10 -110,50 -120,91l115 -59c-9,34 -220,178 -225,245l89 7c30,20 29,11 59,40 18,18 31,33 47,53 18,24 77,96 83,122 -39,-21 -282,-210 -284,-210 -16,0 -25,16 -31,16 -14,0 -111,-83 -147,-86l37 33c6,2 181,137 203,154 31,23 195,133 195,161l0 21c0,6 -21,44 -19,47l-2 63 16 0c-1,16 -5,19 -5,37l0 5c0,39 15,29 29,65 -74,3 -446,101 -484,161 708,-59 1328,-116 2028,42 -35,-49 -341,-142 -430,-163 0,-60 63,-133 58,-252 -2,-70 -5,-75 -64,-88 -23,-5 -120,-16 -120,-38l0 -26c0,-12 9,-21 21,-21l48 0c44,0 113,42 167,42 -5,-19 -51,-53 -66,-69 -15,-16 -44,-73 -44,-99l0 -84c0,-56 69,-103 74,-120l-16 0c-36,0 -73,-52 -73,-90 0,-47 34,-63 36,-94 -25,0 -157,19 -157,0 0,-12 9,-21 21,-21l11 -1 99 6c-2,-28 -47,-64 -47,-99l0 -27c0,-29 36,-40 42,-57l-16 -2 -100 12c-20,3 -21,-43 -21,-63l0 -24 -68 -2 -52 0c-22,0 -63,12 -63,31l0 21c-19,-4 -37,-15 -53,-15l-15 0c-27,0 -28,8 -53,10l0 11c72,6 85,28 164,10l-6 -21c69,0 81,20 126,32l0 21c-22,11 -52,21 -70,35 -16,12 -46,43 -46,64l0 79c0,19 6,18 11,37 22,-6 16,-16 42,-26 22,-8 33,-11 57,-16 -5,59 -115,24 -115,120l0 6c0,43 37,76 37,110l1 24 77 -40c-5,59 -89,18 -89,163l0 10c0,63 21,80 32,121z"/>
    <path class="fil3" d="M267 2117c0,-1 0,-2 0,-2 0,-4 0,-8 1,-11 1,-2 3,-4 6,-6 4,-1 9,-3 16,-3 14,-1 26,1 34,5 8,5 14,10 18,17 4,7 7,14 8,21 1,8 1,14 1,20 0,16 -2,29 -5,39 -3,10 -8,17 -14,23 -5,5 -11,9 -18,11 -6,2 -12,3 -18,3 -7,0 -13,-1 -17,-3 -3,-2 -6,-5 -7,-9 -2,-5 -2,-11 -3,-19 0,-9 -1,-17 -1,-26 0,-9 0,-18 -1,-28 0,-10 0,-21 0,-32zm97 200c1,0 3,0 4,0 24,0 47,-4 68,-10 21,-7 40,-17 55,-31 16,-13 29,-30 38,-50 9,-20 13,-43 13,-69 0,-24 -3,-45 -9,-62 -7,-17 -15,-32 -25,-43 -11,-12 -22,-21 -35,-28 -14,-8 -29,-14 -44,-17 -15,-3 -30,-4 -44,-4 -14,0 -28,1 -41,2 -15,1 -29,3 -41,5 -13,3 -24,6 -36,9 0,-4 0,-8 0,-11 0,-18 0,-33 1,-44 0,-11 0,-20 0,-27 1,-7 1,-11 2,-15 0,-3 0,-5 1,-6 1,-5 4,-9 8,-12 5,-3 10,-6 15,-8 6,-2 12,-3 17,-4 11,-1 22,-2 34,-3 10,-2 20,-2 29,0 10,1 19,3 27,7 7,4 13,9 17,16 4,7 8,13 12,20 3,6 6,11 10,15 3,4 7,8 11,10 4,2 9,3 15,3 7,-1 13,-3 19,-8 6,-5 10,-11 14,-20 3,-9 5,-20 5,-33 0,-8 -1,-18 -3,-28 -2,-11 -5,-22 -10,-34 -5,-12 -11,-25 -19,-37 -3,-3 -5,-7 -9,-11 -3,-4 -7,-7 -12,-9 -5,-2 -10,-3 -17,-3 -3,1 -6,1 -11,3 -4,1 -9,3 -15,4 -12,4 -23,7 -34,9 -11,2 -21,4 -30,5 -77,11 -154,24 -231,38 -14,2 -25,6 -33,11 -9,4 -16,9 -20,14 -5,6 -8,11 -10,16 -2,4 -3,8 -3,12 0,4 1,8 3,10 1,3 3,5 5,7 2,1 4,2 5,3 3,1 5,2 8,2 2,1 5,1 8,2 2,1 5,1 8,3 3,1 5,2 6,4 2,2 3,7 4,13 1,6 2,13 3,22 0,8 1,18 1,27 1,10 1,20 1,29 0,9 1,18 1,26 0,7 0,14 0,18 0,4 0,9 0,18 -1,8 -1,17 -1,29 0,11 -1,22 -1,35 0,12 -1,24 -2,35 -1,12 -1,22 -2,31 -1,8 -2,15 -4,20 -1,5 -4,10 -7,14 -3,5 -7,9 -10,12 -4,3 -8,5 -12,6 -3,1 -6,3 -9,6 -2,2 -4,6 -5,9 -1,4 -2,7 -2,10 1,9 3,15 7,19 5,5 10,8 17,10 7,2 13,3 20,4 6,0 12,0 16,0 87,1 173,3 259,4zm423 -402c0,-15 0,-26 1,-35 1,-9 2,-16 3,-20 1,-5 3,-8 6,-10 2,-2 5,-2 9,-3 9,0 18,3 26,9 8,6 15,15 20,28 5,14 8,31 8,52 0,17 -2,31 -6,42 -4,10 -9,19 -15,25 -6,6 -13,10 -20,12 -6,3 -12,4 -18,4 -4,0 -7,-1 -9,-3 -2,-3 -3,-7 -4,-14 -1,-7 -1,-17 -1,-30 0,-19 0,-38 0,-57zm-188 -62c7,3 12,7 16,13 3,7 5,14 6,23 1,9 1,19 1,30 0,42 0,83 0,125 0,6 0,14 0,24 0,9 0,20 0,31 -1,12 -1,23 -1,35 -1,12 -2,23 -2,33 -1,10 -2,19 -3,26 -1,8 -3,13 -4,16 -2,3 -4,6 -8,7 -2,2 -5,4 -9,6 -4,3 -9,6 -13,9 -4,3 -7,7 -9,12 -2,4 -4,9 -4,15 0,13 4,24 12,32 8,8 19,14 32,18 13,4 28,7 45,9 16,1 33,2 51,2 10,0 21,-1 32,-1 12,0 24,-2 35,-4 12,-2 22,-5 32,-9 10,-4 18,-11 23,-18 6,-8 9,-18 9,-30 0,-7 -1,-12 -4,-16 -2,-4 -5,-7 -9,-10 -3,-2 -6,-5 -10,-7 -4,-3 -8,-5 -12,-8 -3,-3 -5,-7 -7,-13 -2,-7 -4,-14 -4,-22 -1,-7 -2,-15 -2,-22 0,-7 0,-12 0,-16 0,-10 0,-20 0,-30 5,0 10,0 17,1 6,0 14,0 23,0 12,0 25,-1 39,-3 15,-2 29,-5 44,-10 15,-5 30,-12 44,-21 13,-9 26,-20 37,-34 11,-15 20,-32 26,-53 6,-20 10,-44 10,-72 0,-26 -3,-49 -9,-67 -6,-19 -14,-35 -24,-48 -10,-13 -22,-23 -35,-31 -13,-8 -27,-14 -42,-17 -15,-4 -29,-7 -44,-8 -15,-1 -29,-1 -43,0 -11,0 -20,1 -28,2 -8,0 -15,1 -21,2 -6,1 -12,2 -18,4 -6,1 -13,2 -20,3 -8,1 -17,2 -28,3 -10,1 -23,2 -38,3 -9,1 -18,1 -26,1 -9,1 -18,1 -26,2 -18,1 -32,4 -42,9 -10,5 -17,10 -21,17 -3,6 -5,13 -5,20 0,8 1,14 4,18 2,4 5,7 9,9 4,2 8,3 13,5 4,2 7,3 11,5zm675 362c-3,-2 -4,-6 -6,-11 -1,-5 -2,-12 -3,-19 0,-7 -1,-15 -1,-22 0,-6 1,-12 3,-17 1,-4 4,-9 8,-13 4,-4 9,-8 15,-13 23,-17 45,-34 68,-51 5,-4 9,-7 12,-9 3,-2 5,-3 6,-4 1,0 2,0 2,0 1,0 2,0 4,1 1,1 1,3 2,6 0,4 1,10 1,16 1,6 1,12 1,19 0,6 1,12 1,17 0,10 0,20 1,30 0,3 0,6 -1,12 0,5 0,11 -1,17 0,6 0,12 -1,18 -1,5 -1,10 -2,12 -1,3 -2,5 -4,7 -2,2 -5,4 -8,6 -2,1 -4,2 -6,4 -3,1 -7,4 -10,7 -4,4 -7,8 -10,13 -2,5 -4,11 -4,18 0,12 3,21 9,29 6,7 13,13 23,17 9,4 20,7 31,9 11,2 23,3 35,3 12,1 22,1 33,1 10,0 21,0 32,-1 12,0 23,-1 34,-3 11,-2 21,-5 30,-9 9,-4 16,-9 21,-16 6,-7 8,-16 8,-26 0,-6 -1,-11 -3,-16 -2,-5 -6,-9 -11,-14 -3,-1 -5,-3 -8,-4 -2,-2 -4,-3 -7,-4 -2,-1 -3,-2 -4,-3 -1,-1 -1,-2 -1,-2 -1,-1 -2,-3 -3,-6 -1,-3 -1,-8 -2,-15 -1,-7 -2,-16 -3,-29 0,-13 -1,-30 -1,-50 -1,-20 -1,-45 -1,-75 0,-20 0,-40 0,-60 0,-2 0,-6 0,-11 0,-6 0,-13 1,-21 0,-7 0,-16 1,-24 0,-9 1,-17 2,-25 1,-8 2,-14 3,-19 2,-6 3,-9 5,-10 4,-3 9,-5 14,-8 3,-2 7,-4 11,-6 4,-2 8,-5 10,-10 3,-4 5,-10 5,-19 0,-12 -4,-22 -12,-30 -8,-8 -21,-15 -39,-20 -18,-5 -43,-9 -73,-13 -28,-3 -52,-3 -70,-2 -17,0 -31,3 -41,6 -10,4 -16,9 -20,16 -4,6 -5,14 -5,23 0,7 1,13 3,18 1,4 4,7 7,10 3,3 7,6 10,8 3,2 6,5 9,7 2,2 4,5 6,9 1,3 3,8 4,13 1,5 2,10 2,14 1,4 1,8 1,11 0,4 0,8 -1,13 -1,4 -3,8 -6,13 -3,4 -7,9 -13,13 -27,19 -53,38 -80,57 -2,1 -4,2 -7,4 -2,1 -4,2 -6,2 -3,0 -5,-2 -6,-7 0,-4 -1,-9 -1,-15 0,-2 0,-4 0,-6 0,-24 0,-47 0,-71 0,-1 0,-3 0,-5 0,-10 0,-18 1,-24 1,-7 2,-12 4,-16 2,-3 4,-6 6,-8 3,-2 6,-4 9,-6 4,-3 7,-5 11,-9 4,-3 7,-7 9,-12 3,-5 4,-11 4,-19 0,-14 -5,-25 -16,-33 -10,-7 -24,-13 -43,-17 -19,-3 -41,-5 -67,-6 -9,0 -20,0 -32,0 -11,1 -23,2 -35,3 -12,2 -22,5 -32,9 -10,3 -18,9 -24,16 -6,7 -9,16 -9,26 0,8 1,14 4,19 3,5 6,9 11,11 4,3 8,5 12,7 1,1 3,1 5,3 2,1 4,2 6,5 1,0 1,2 2,5 1,3 2,7 3,14 1,7 1,17 2,30 1,13 2,30 2,51 1,21 1,47 1,78 0,34 0,63 -1,86 0,24 -1,43 -3,57 -1,15 -2,26 -4,33 -3,7 -5,11 -8,12 -3,2 -6,3 -9,4 -5,2 -9,5 -13,8 -4,3 -8,7 -10,12 -3,5 -4,12 -4,20 0,12 4,22 11,30 7,8 16,14 28,18 12,4 25,7 40,9 14,1 29,2 44,2 7,0 15,-1 24,-1 10,0 19,-1 29,-2 10,-1 20,-3 30,-5 9,-2 18,-6 25,-10 8,-5 14,-10 19,-17 4,-6 7,-14 7,-24 0,-7 -2,-13 -4,-18 -3,-5 -6,-9 -9,-12 -4,-3 -8,-6 -12,-9 -2,-1 -5,-3 -7,-5zm521 -204c-12,-2 -22,-2 -29,0 -7,1 -12,4 -15,7 -3,4 -5,8 -6,13 -1,5 -1,10 -1,16 0,0 0,1 0,1 0,6 0,12 1,18 0,5 2,10 5,15 3,5 9,9 16,12 7,4 16,6 29,7 11,1 21,1 32,2 1,0 1,0 2,1 5,0 10,0 16,1 6,1 13,3 20,6 7,2 14,6 20,10 7,5 12,11 16,19 4,7 6,16 6,27 0,10 -3,18 -7,25 -5,7 -11,13 -19,18 -7,5 -16,9 -26,11 -9,2 -19,3 -30,3 -8,0 -18,-2 -28,-5 -10,-3 -20,-8 -31,-15 -10,-7 -20,-17 -30,-31 -3,-4 -7,-10 -12,-18 -5,-7 -10,-15 -17,-24 -3,-3 -5,-6 -8,-9 -4,-4 -7,-7 -12,-9 -4,-2 -8,-4 -14,-4 -3,0 -7,0 -11,2 -4,1 -8,4 -12,9 -4,4 -7,10 -9,18 -3,8 -4,19 -4,32 0,19 2,35 6,49 5,14 10,25 16,35 6,9 12,17 19,23 6,6 12,10 16,13 5,3 12,7 21,11 9,4 20,8 33,12 13,3 29,6 47,9 17,2 38,4 61,3 38,0 71,-3 97,-9 26,-6 48,-14 65,-24 17,-9 31,-20 40,-31 9,-12 16,-24 20,-36 3,-12 5,-23 5,-34 0,-15 -3,-29 -8,-41 -5,-12 -11,-23 -19,-32 -8,-9 -17,-17 -27,-24 -10,-7 -20,-12 -30,-17 -10,-4 -19,-8 -28,-10 0,-1 0,-2 0,-4 12,-2 23,-5 33,-10 10,-5 19,-11 27,-18 8,-7 14,-15 19,-25 4,-10 7,-21 7,-33 0,-18 -5,-35 -14,-51 -8,-16 -21,-30 -36,-44 -15,-13 -33,-25 -54,-34 -20,-10 -42,-17 -66,-22 -15,-3 -30,-5 -44,-6 -14,0 -29,0 -43,2 -7,1 -13,2 -17,2 -5,1 -9,1 -12,2 -3,0 -6,0 -9,-1 -4,-1 -8,-2 -12,-4 -3,-2 -6,-4 -9,-7 -4,-2 -8,-5 -13,-8 -5,-3 -10,-5 -16,-6 -7,-2 -14,0 -21,5 -7,4 -13,11 -19,20 -5,10 -10,22 -14,36 -3,14 -5,31 -5,50 0,18 3,32 6,42 4,10 10,17 16,21 6,4 12,7 19,7 6,1 11,0 16,-2 4,-1 8,-4 12,-6 3,-3 7,-6 10,-10 7,-6 13,-12 20,-18 7,-7 15,-12 24,-18 8,-5 16,-8 24,-10 8,-2 17,-3 25,-2 12,2 23,6 31,12 9,6 16,14 21,22 4,8 7,16 7,25 0,4 -1,9 -2,14 -1,5 -4,11 -8,15 -4,5 -11,8 -19,10 -9,3 -20,3 -35,1 -8,0 -17,-1 -25,-2z"/>
   </g>
   <g>
    <path class="fil4 str0" d="M80 2460l15 5c-2,8 -6,14 -11,18 -6,5 -13,7 -21,7 -10,0 -18,-4 -25,-11 -6,-7 -10,-16 -10,-28 0,-13 4,-23 10,-30 7,-7 15,-10 26,-10 9,0 17,2 23,8 3,3 6,8 8,14l-16 4c0,-4 -2,-8 -5,-10 -3,-2 -7,-3 -11,-3 -5,0 -10,2 -13,6 -4,4 -6,10 -6,20 0,9 2,16 6,20 3,4 8,6 13,6 4,0 8,-1 11,-4 3,-2 5,-6 6,-12zm37 28l0 -76 57 0 0 13 -41 0 0 17 38 0 0 13 -38 0 0 20 42 0 0 13 -58 0zm80 0l0 -76 23 0 14 52 14 -52 23 0 0 76 -14 0 0 -60 -15 60 -15 0 -15 -60 0 60 -15 0zm99 0l0 -76 56 0 0 13 -41 0 0 17 38 0 0 13 -38 0 0 20 43 0 0 13 -58 0zm80 -76l15 0 0 51 31 -51 15 0 0 76 -15 0 0 -50 -30 50 -16 0 0 -76zm40 -19l7 0c-1,5 -2,8 -5,11 -3,3 -7,4 -11,4 -5,0 -9,-1 -12,-4 -3,-3 -4,-6 -5,-11l8 0c0,2 1,4 2,5 2,2 4,2 7,2 2,0 5,0 6,-2 2,-1 3,-3 3,-5zm46 95l0 -76 15 0 0 30 30 0 0 -30 16 0 0 76 -16 0 0 -33 -30 0 0 33 -15 0zm86 -76l16 0 0 30 20 0c6,0 11,1 14,3 4,1 8,4 10,8 3,3 4,8 4,13 0,5 -1,9 -4,13 -3,4 -6,6 -9,7 -3,2 -8,2 -15,2l-36 0 0 -76zm16 63l15 0c5,0 8,0 10,0 2,-1 3,-2 5,-3 1,-2 2,-4 2,-7 0,-3 -1,-6 -3,-7 -3,-2 -7,-3 -14,-3l-15 0 0 20zm57 -63l15 0 0 76 -15 0 0 -76zm41 0l14 0 0 51 31 -51 16 0 0 76 -15 0 0 -50 -31 50 -15 0 0 -76zm39 -19l8 0c-1,5 -3,8 -5,11 -3,3 -7,4 -12,4 -4,0 -8,-1 -11,-4 -3,-3 -5,-6 -5,-11l7 0c0,2 1,4 3,5 1,2 3,2 6,2 3,0 5,0 7,-2 1,-1 2,-3 2,-5zm89 19l61 0 0 76 -16 0 0 -63 -30 0 0 63 -15 0 0 -76zm155 76l-17 0 -7 -17 -30 0 -7 17 -16 0 30 -76 16 0 31 76zm-29 -30l-10 -28 -11 28 21 0zm46 30l0 -76 25 0c9,0 15,0 18,1 4,1 8,4 11,7 3,4 4,9 4,15 0,5 0,9 -2,12 -2,3 -4,6 -7,8 -2,2 -5,3 -8,3 -3,1 -9,1 -16,1l-10 0 0 29 -15 0zm15 -63l0 21 9 0c6,0 10,0 12,-1 2,-1 4,-2 5,-4 1,-1 1,-3 1,-5 0,-3 0,-6 -2,-7 -2,-2 -4,-3 -6,-4 -2,0 -6,0 -11,0l-8 0zm65 -13l16 0 0 32c3,0 6,-1 7,-2 1,-2 3,-6 5,-12 4,-8 7,-14 10,-16 3,-2 8,-3 16,-3 0,0 1,0 2,0l0 12 -2 0c-4,0 -6,0 -7,1 -2,1 -3,2 -4,3 -1,2 -2,5 -4,10 -1,3 -2,5 -3,7 -1,2 -3,3 -6,5 4,1 7,3 9,6 2,3 4,7 7,12l11 21 -19 0 -9 -19c0,-1 0,-1 -1,-2 0,0 0,-2 -1,-4 -2,-3 -4,-6 -5,-7 -2,-1 -4,-1 -6,-1l0 33 -16 0 0 -76zm117 76l0 -76 25 0c9,0 15,0 18,1 4,1 8,4 11,7 3,4 4,9 4,15 0,5 0,9 -2,12 -2,3 -4,6 -7,8 -2,2 -5,3 -8,3 -3,1 -9,1 -16,1l-10 0 0 29 -15 0zm15 -63l0 21 9 0c6,0 10,0 12,-1 2,-1 4,-2 5,-4 1,-1 1,-3 1,-5 0,-3 0,-6 -2,-7 -2,-2 -4,-3 -6,-4 -2,0 -6,0 -11,0l-8 0zm125 63l-17 0 -7 -17 -30 0 -7 17 -16 0 30 -76 16 0 31 76zm-29 -30l-10 -28 -11 28 21 0zm57 -25l-15 -4c3,-12 12,-18 27,-18 9,0 16,1 21,5 4,4 7,9 7,14 0,4 -2,7 -4,10 -2,3 -5,6 -9,8 5,2 9,4 11,7 3,4 4,7 4,12 0,7 -2,12 -7,16 -5,4 -12,7 -22,7 -8,0 -15,-2 -19,-4 -5,-3 -8,-8 -11,-15l15 -5c1,5 3,8 5,9 3,1 6,2 9,2 5,0 9,-1 11,-3 2,-2 3,-5 3,-7 0,-4 -1,-6 -3,-8 -3,-2 -7,-3 -12,-3l-3 0 0 -11 1 0c5,0 9,-1 11,-4 3,-2 4,-4 4,-8 0,-3 -1,-5 -3,-7 -2,-2 -5,-3 -9,-3 -6,0 -10,3 -12,10zm65 -21l30 0c7,0 11,0 14,1 3,0 6,1 8,3 2,1 4,3 6,6 1,3 2,6 2,9 0,4 -1,7 -3,10 -2,3 -4,5 -8,7 5,1 9,3 11,7 3,3 4,7 4,11 0,4 -1,7 -2,10 -2,4 -4,6 -7,8 -3,2 -6,3 -10,4 -3,0 -9,0 -19,0l-26 0 0 -76zm15 13l0 17 10 0c6,0 10,0 12,0 2,0 4,-1 6,-3 1,-1 2,-3 2,-6 0,-2 0,-4 -2,-6 -1,-1 -3,-2 -6,-2 -1,0 -6,0 -13,0l-9 0zm0 30l0 20 15 0c5,0 9,0 10,0 3,0 4,-2 6,-3 1,-2 2,-4 2,-7 0,-2 -1,-4 -2,-5 -1,-2 -2,-3 -4,-4 -3,-1 -7,-1 -14,-1l-13 0zm74 -43l53 0 0 76 -15 0 0 -63 -23 0 0 32c0,10 0,16 -1,20 -1,4 -2,7 -4,9 -3,2 -7,3 -12,3 -2,0 -5,0 -10,-1l0 -12 4 0c3,0 5,0 6,-1 1,-1 2,-3 2,-6l0 -14 0 -43zm78 76l0 -76 57 0 0 13 -41 0 0 17 38 0 0 13 -38 0 0 20 43 0 0 13 -59 0zm79 -76l16 0 0 18c0,6 0,10 1,12 0,2 1,3 3,5 3,1 6,2 10,2 3,0 6,0 9,-1 2,-1 5,-2 6,-3l0 -33 16 0 0 76 -16 0 0 -31c-3,2 -6,3 -9,4 -3,0 -6,1 -9,1 -7,0 -14,-2 -19,-6 -5,-3 -8,-10 -8,-18l0 -26zm86 76l0 -76 56 0 0 13 -41 0 0 17 39 0 0 13 -39 0 0 20 43 0 0 13 -58 0zm80 0l0 -76 16 0 0 30 30 0 0 -30 15 0 0 76 -15 0 0 -33 -30 0 0 33 -16 0zm86 -76l15 0 0 51 31 -51 15 0 0 76 -14 0 0 -50 -31 50 -16 0 0 -76zm86 0l15 0 0 51 31 -51 15 0 0 76 -14 0 0 -50 -31 50 -16 0 0 -76zm40 -19l7 0c0,5 -2,8 -5,11 -3,3 -7,4 -11,4 -5,0 -9,-1 -11,-4 -3,-3 -5,-6 -5,-11l7 0c0,2 1,4 2,5 2,2 4,2 7,2 3,0 5,0 6,-2 2,-1 3,-3 3,-5z"/>
    <path id="1" class="fil5" d="M80 2460l15 5c-2,8 -6,14 -11,18 -6,5 -13,7 -21,7 -10,0 -18,-4 -25,-11 -6,-7 -10,-16 -10,-28 0,-13 4,-23 10,-30 7,-7 15,-10 26,-10 9,0 17,2 23,8 3,3 6,8 8,14l-16 4c0,-4 -2,-8 -5,-10 -3,-2 -7,-3 -11,-3 -5,0 -10,2 -13,6 -4,4 -6,10 -6,20 0,9 2,16 6,20 3,4 8,6 13,6 4,0 8,-1 11,-4 3,-2 5,-6 6,-12zm37 28l0 -76 57 0 0 13 -41 0 0 17 38 0 0 13 -38 0 0 20 42 0 0 13 -58 0zm80 0l0 -76 23 0 14 52 14 -52 23 0 0 76 -14 0 0 -60 -15 60 -15 0 -15 -60 0 60 -15 0zm99 0l0 -76 56 0 0 13 -41 0 0 17 38 0 0 13 -38 0 0 20 43 0 0 13 -58 0zm80 -76l15 0 0 51 31 -51 15 0 0 76 -15 0 0 -50 -30 50 -16 0 0 -76zm40 -19l7 0c-1,5 -2,8 -5,11 -3,3 -7,4 -11,4 -5,0 -9,-1 -12,-4 -3,-3 -4,-6 -5,-11l8 0c0,2 1,4 2,5 2,2 4,2 7,2 2,0 5,0 6,-2 2,-1 3,-3 3,-5zm46 95l0 -76 15 0 0 30 30 0 0 -30 16 0 0 76 -16 0 0 -33 -30 0 0 33 -15 0zm86 -76l16 0 0 30 20 0c6,0 11,1 14,3 4,1 8,4 10,8 3,3 4,8 4,13 0,5 -1,9 -4,13 -3,4 -6,6 -9,7 -3,2 -8,2 -15,2l-36 0 0 -76zm16 63l15 0c5,0 8,0 10,0 2,-1 3,-2 5,-3 1,-2 2,-4 2,-7 0,-3 -1,-6 -3,-7 -3,-2 -7,-3 -14,-3l-15 0 0 20zm57 -63l15 0 0 76 -15 0 0 -76zm41 0l14 0 0 51 31 -51 16 0 0 76 -15 0 0 -50 -31 50 -15 0 0 -76zm39 -19l8 0c-1,5 -3,8 -5,11 -3,3 -7,4 -12,4 -4,0 -8,-1 -11,-4 -3,-3 -5,-6 -5,-11l7 0c0,2 1,4 3,5 1,2 3,2 6,2 3,0 5,0 7,-2 1,-1 2,-3 2,-5zm89 19l61 0 0 76 -16 0 0 -63 -30 0 0 63 -15 0 0 -76zm155 76l-17 0 -7 -17 -30 0 -7 17 -16 0 30 -76 16 0 31 76zm-29 -30l-10 -28 -11 28 21 0zm46 30l0 -76 25 0c9,0 15,0 18,1 4,1 8,4 11,7 3,4 4,9 4,15 0,5 0,9 -2,12 -2,3 -4,6 -7,8 -2,2 -5,3 -8,3 -3,1 -9,1 -16,1l-10 0 0 29 -15 0zm15 -63l0 21 9 0c6,0 10,0 12,-1 2,-1 4,-2 5,-4 1,-1 1,-3 1,-5 0,-3 0,-6 -2,-7 -2,-2 -4,-3 -6,-4 -2,0 -6,0 -11,0l-8 0zm65 -13l16 0 0 32c3,0 6,-1 7,-2 1,-2 3,-6 5,-12 4,-8 7,-14 10,-16 3,-2 8,-3 16,-3 0,0 1,0 2,0l0 12 -2 0c-4,0 -6,0 -7,1 -2,1 -3,2 -4,3 -1,2 -2,5 -4,10 -1,3 -2,5 -3,7 -1,2 -3,3 -6,5 4,1 7,3 9,6 2,3 4,7 7,12l11 21 -19 0 -9 -19c0,-1 0,-1 -1,-2 0,0 0,-2 -1,-4 -2,-3 -4,-6 -5,-7 -2,-1 -4,-1 -6,-1l0 33 -16 0 0 -76zm117 76l0 -76 25 0c9,0 15,0 18,1 4,1 8,4 11,7 3,4 4,9 4,15 0,5 0,9 -2,12 -2,3 -4,6 -7,8 -2,2 -5,3 -8,3 -3,1 -9,1 -16,1l-10 0 0 29 -15 0zm15 -63l0 21 9 0c6,0 10,0 12,-1 2,-1 4,-2 5,-4 1,-1 1,-3 1,-5 0,-3 0,-6 -2,-7 -2,-2 -4,-3 -6,-4 -2,0 -6,0 -11,0l-8 0zm125 63l-17 0 -7 -17 -30 0 -7 17 -16 0 30 -76 16 0 31 76zm-29 -30l-10 -28 -11 28 21 0zm57 -25l-15 -4c3,-12 12,-18 27,-18 9,0 16,1 21,5 4,4 7,9 7,14 0,4 -2,7 -4,10 -2,3 -5,6 -9,8 5,2 9,4 11,7 3,4 4,7 4,12 0,7 -2,12 -7,16 -5,4 -12,7 -22,7 -8,0 -15,-2 -19,-4 -5,-3 -8,-8 -11,-15l15 -5c1,5 3,8 5,9 3,1 6,2 9,2 5,0 9,-1 11,-3 2,-2 3,-5 3,-7 0,-4 -1,-6 -3,-8 -3,-2 -7,-3 -12,-3l-3 0 0 -11 1 0c5,0 9,-1 11,-4 3,-2 4,-4 4,-8 0,-3 -1,-5 -3,-7 -2,-2 -5,-3 -9,-3 -6,0 -10,3 -12,10zm65 -21l30 0c7,0 11,0 14,1 3,0 6,1 8,3 2,1 4,3 6,6 1,3 2,6 2,9 0,4 -1,7 -3,10 -2,3 -4,5 -8,7 5,1 9,3 11,7 3,3 4,7 4,11 0,4 -1,7 -2,10 -2,4 -4,6 -7,8 -3,2 -6,3 -10,4 -3,0 -9,0 -19,0l-26 0 0 -76zm15 13l0 17 10 0c6,0 10,0 12,0 2,0 4,-1 6,-3 1,-1 2,-3 2,-6 0,-2 0,-4 -2,-6 -1,-1 -3,-2 -6,-2 -1,0 -6,0 -13,0l-9 0zm0 30l0 20 15 0c5,0 9,0 10,0 3,0 4,-2 6,-3 1,-2 2,-4 2,-7 0,-2 -1,-4 -2,-5 -1,-2 -2,-3 -4,-4 -3,-1 -7,-1 -14,-1l-13 0zm74 -43l53 0 0 76 -15 0 0 -63 -23 0 0 32c0,10 0,16 -1,20 -1,4 -2,7 -4,9 -3,2 -7,3 -12,3 -2,0 -5,0 -10,-1l0 -12 4 0c3,0 5,0 6,-1 1,-1 2,-3 2,-6l0 -14 0 -43zm78 76l0 -76 57 0 0 13 -41 0 0 17 38 0 0 13 -38 0 0 20 43 0 0 13 -59 0zm79 -76l16 0 0 18c0,6 0,10 1,12 0,2 1,3 3,5 3,1 6,2 10,2 3,0 6,0 9,-1 2,-1 5,-2 6,-3l0 -33 16 0 0 76 -16 0 0 -31c-3,2 -6,3 -9,4 -3,0 -6,1 -9,1 -7,0 -14,-2 -19,-6 -5,-3 -8,-10 -8,-18l0 -26zm86 76l0 -76 56 0 0 13 -41 0 0 17 39 0 0 13 -39 0 0 20 43 0 0 13 -58 0zm80 0l0 -76 16 0 0 30 30 0 0 -30 15 0 0 76 -15 0 0 -33 -30 0 0 33 -16 0zm86 -76l15 0 0 51 31 -51 15 0 0 76 -14 0 0 -50 -31 50 -16 0 0 -76zm86 0l15 0 0 51 31 -51 15 0 0 76 -14 0 0 -50 -31 50 -16 0 0 -76zm40 -19l7 0c0,5 -2,8 -5,11 -3,3 -7,4 -11,4 -5,0 -9,-1 -11,-4 -3,-3 -5,-6 -5,-11l7 0c0,2 1,4 2,5 2,2 4,2 7,2 3,0 5,0 6,-2 2,-1 3,-3 3,-5z"/>
   </g>
  </g>
 </g>
</svg>
