<?xml version="1.0" encoding="UTF-8"?>
<!DOCTYPE svg PUBLIC "-//W3C//DTD SVG 1.0//EN" "http://www.w3.org/TR/2001/REC-SVG-20010904/DTD/svg10.dtd">
<!-- Creator: CorelDRAW X7 -->
<svg xmlns="http://www.w3.org/2000/svg" xml:space="preserve" width="2017px" height="287px" version="1.0" style="shape-rendering:geometricPrecision; text-rendering:geometricPrecision; image-rendering:optimizeQuality; fill-rule:evenodd; clip-rule:evenodd"
viewBox="0 0 2015 287"
 xmlns:xlink="http://www.w3.org/1999/xlink">
 <defs>
  <style type="text/css">
   <![CDATA[
    .fil0 {fill:black;fill-rule:nonzero}
    .fil3 {fill:#33AD6A;fill-rule:nonzero}
    .fil1 {fill:#6A2F85;fill-rule:nonzero}
    .fil4 {fill:#E95229;fill-rule:nonzero}
    .fil2 {fill:#F39314;fill-rule:nonzero}
   ]]>
  </style>
 </defs>
 <g id="Слой_x0020_1">
  <metadata id="CorelCorpID_0Corel-Layer"/>
  <g id="_785133959504">
   <path class="fil0" d="M1102 92l-5 38 -14 68c-2,12 -3,23 -3,33 0,39 21,56 54,56 25,0 50,-12 72,-37l1 0 -5 32 53 0c3,-17 6,-37 11,-61l25 -127 -60 0 -16 80c-8,41 -30,66 -51,66 -17,0 -23,-11 -23,-24 0,-7 2,-16 3,-23l12 -61c10,-48 -30,-49 -54,-40zm-746 190l0 0c-1,-25 3,-62 7,-87l19 -96c-17,-5 -43,-10 -67,-10 -100,0 -148,64 -148,129 0,41 27,69 64,69 25,0 52,-11 71,-44l1 0c-4,52 32,45 53,39zm-48 -110l0 0c-9,50 -33,68 -52,68 -17,0 -26,-13 -26,-32 0,-37 30,-75 68,-75 7,0 13,1 17,2l-7 37zm-157 57l0 0c-11,4 -27,11 -46,11 -23,0 -42,-12 -42,-40 0,-34 26,-65 70,-65 14,0 23,2 31,5l14 -44c-10,-3 -26,-7 -44,-7 -78,0 -134,51 -134,117 0,54 39,81 88,81 69,0 74,-40 63,-58zm347 -94l0 0 -7 43c-3,18 -11,39 -36,31 -29,-9 -9,-76 43,-74zm52 44l0 0 8 -44c64,-3 48,62 13,74 -16,6 -21,0 -23,-9 0,-6 1,-14 2,-21zm-20 103l0 0 6 -31c18,12 48,6 62,0 25,-9 48,-28 56,-58 24,-90 -51,-106 -116,-106 -65,0 -152,14 -158,106 -2,30 11,50 32,59 17,7 45,7 65,-3l-7 33 60 0zm426 -102l0 0 7 -45c44,-8 55,18 51,40 -4,19 -16,36 -39,36 -19,0 -23,-13 -19,-31zm-20 102l0 0 7 -35c14,9 34,12 52,9 44,-5 72,-36 77,-80 4,-39 -9,-62 -34,-75 -38,-20 -95,-12 -129,-1l-5 38 -28 144 60 0zm-80 0l0 0c-1,-25 3,-62 8,-87l19 -96c-17,-5 -44,-10 -68,-10 -100,0 -148,64 -148,129 0,41 28,69 64,69 25,0 52,-11 72,-44l1 0c-5,52 32,45 52,39zm-47 -110l0 0c-9,50 -34,68 -52,68 -17,0 -27,-13 -27,-32 0,-37 30,-75 69,-75 7,0 12,1 16,2l-6 37z"/>
   <polygon class="fil1" points="1335,279 1394,0 1428,0 1391,174 1493,77 1538,77 1452,152 1504,279 1466,279 1426,175 1383,211 1369,279 "/>
   <path id="1" class="fil2" d="M1580 39l8 -39 34 0 -8 39 -34 0zm-51 240l43 -202 34 0 -42 202 -35 0z"/>
   <path id="2" class="fil3" d="M1753 250c-20,22 -41,33 -62,33 -19,0 -35,-7 -48,-21 -12,-14 -19,-35 -19,-61 0,-25 5,-47 15,-68 10,-20 23,-35 38,-45 15,-10 30,-16 46,-16 25,0 44,13 56,37l23 -109 34 0 -58 279 -32 0 7 -29zm-95 -56c0,14 2,25 5,33 2,8 7,15 14,20 7,6 15,8 24,8 16,0 30,-8 43,-24 17,-21 25,-48 25,-79 0,-16 -4,-29 -12,-38 -9,-9 -19,-13 -32,-13 -8,0 -16,2 -23,5 -6,4 -13,10 -20,19 -6,9 -12,20 -17,33 -4,14 -7,26 -7,36z"/>
   <path id="3" class="fil4" d="M1837 210l34 -2c0,9 2,18 5,25 3,7 8,13 16,17 9,4 18,7 29,7 15,0 26,-3 34,-9 7,-7 11,-14 11,-22 0,-6 -2,-12 -7,-17 -4,-5 -16,-12 -34,-20 -18,-7 -29,-13 -34,-16 -9,-5 -15,-11 -20,-18 -4,-7 -6,-15 -6,-24 0,-16 6,-30 19,-41 13,-12 30,-18 53,-18 25,0 45,6 58,18 13,12 20,27 20,46l-33 3c-1,-13 -5,-22 -13,-29 -8,-8 -20,-11 -34,-11 -12,0 -21,3 -28,8 -6,6 -10,12 -10,18 0,6 3,12 9,17 4,3 13,8 29,15 26,11 43,20 50,27 10,10 16,23 16,38 0,10 -3,20 -9,29 -6,10 -16,18 -28,24 -13,5 -28,8 -45,8 -23,0 -43,-6 -59,-17 -16,-12 -24,-30 -23,-56z"/>
  </g>
 </g>
</svg>
