<?xml version="1.0" encoding="UTF-8"?>
<!DOCTYPE svg PUBLIC "-//W3C//DTD SVG 1.0//EN" "http://www.w3.org/TR/2001/REC-SVG-20010904/DTD/svg10.dtd">
<!-- Creator: CorelDRAW X7 -->
<svg xmlns="http://www.w3.org/2000/svg" xml:space="preserve" width="2118px" height="714px" version="1.0" style="shape-rendering:geometricPrecision; text-rendering:geometricPrecision; image-rendering:optimizeQuality; fill-rule:evenodd; clip-rule:evenodd"
viewBox="0 0 2124 716"
 xmlns:xlink="http://www.w3.org/1999/xlink">
 <defs>
  <style type="text/css">
   <![CDATA[
    .fil0 {fill:#E31E24}
    .fil1 {fill:#FEFEFE;fill-rule:nonzero}
   ]]>
  </style>
 </defs>
 <g id="Слой_x0020_1">
  <metadata id="CorelCorpID_0Corel-Layer"/>
  <rect class="fil0" width="2124" height="716"/>
  <g id="_785133829856">
   <path class="fil1" d="M1688 119l-7 51 -18 92c-3,18 -5,32 -5,46 0,53 29,75 74,75 34,0 68,-15 98,-50l1 0 -6 44 72 0c4,-23 8,-50 15,-83l33 -173 -81 0 -21 109c-11,56 -42,89 -71,89 -22,0 -30,-14 -30,-32 0,-9 2,-21 4,-31l16 -83c13,-65 -40,-66 -74,-54zm-1013 258l0 0c-2,-34 3,-84 10,-118l26 -131c-24,-7 -60,-13 -92,-13 -136,0 -201,86 -201,175 0,56 37,93 87,93 34,0 70,-14 97,-59l1 0c-6,71 44,61 72,53zm-65 -149l0 0c-12,68 -46,92 -71,92 -23,0 -36,-17 -36,-44 0,-50 41,-101 93,-101 10,0 17,1 23,2l-9 51zm-214 77l0 0c-15,6 -36,15 -62,15 -31,0 -58,-17 -58,-55 0,-45 35,-88 96,-88 19,0 31,3 41,7l20 -59c-14,-5 -36,-10 -60,-10 -106,0 -182,68 -182,159 0,73 53,109 120,109 93,0 100,-54 85,-78zm472 -128l0 0 -10 59c-4,24 -15,53 -49,42 -40,-13 -13,-103 59,-101zm70 60l0 0 11 -60c87,-4 66,84 19,101 -22,7 -30,0 -32,-13 -1,-8 1,-18 2,-28zm-26 140l0 0 8 -42c23,16 64,8 84,1 34,-13 66,-39 76,-80 32,-123 -70,-144 -158,-144 -88,0 -206,19 -214,144 -3,40 14,68 42,80 25,10 62,9 89,-4l-9 45 82 0zm578 -139l0 0 10 -61c59,-11 74,25 69,54 -5,27 -22,49 -53,49 -25,0 -31,-17 -26,-42zm-27 139l0 0 9 -47c20,11 47,15 72,12 59,-7 98,-50 104,-109 5,-53 -13,-85 -46,-102 -52,-27 -129,-16 -175,-2l-7 52 -38 196 81 0zm-108 0l0 0c-1,-34 3,-84 10,-118l26 -131c-23,-7 -59,-13 -92,-13 -136,0 -201,86 -201,175 0,56 37,93 87,93 34,0 71,-14 97,-59l1 0c-6,71 44,61 72,53zm-65 -149l0 0c-12,68 -46,92 -70,92 -24,0 -37,-17 -37,-44 0,-50 41,-101 94,-101 9,0 16,1 22,2l-9 51z"/>
   <path class="fil1" d="M343 537c0,11 -4,21 -12,29 -7,8 -19,13 -35,14 0,5 0,11 1,18l-15 0c0,-6 0,-12 0,-18 -16,-1 -28,-5 -35,-12 -7,-7 -11,-16 -11,-27 0,-11 4,-21 11,-29 8,-8 20,-13 35,-14 0,-5 0,-10 0,-14l15 0c-1,4 -1,8 -1,14 16,1 28,5 35,12 8,7 12,16 12,27zm-14 2c0,-18 -11,-29 -33,-31 0,10 -1,20 -1,29 0,11 1,22 1,33 22,-2 33,-12 33,-31zm-46 2c0,-11 0,-22 0,-33 -22,2 -33,12 -33,31 0,19 11,29 33,31 0,-10 0,-20 0,-29zm145 57l-15 0c1,-10 1,-22 1,-39 0,-4 1,-11 1,-20l-1 0c-1,4 -9,14 -23,31 -13,15 -20,25 -20,28l-12 0c1,-11 1,-24 1,-39 0,-16 -1,-29 -3,-40l17 -3c-1,11 -1,24 -1,40 0,6 0,13 0,22l0 0c2,-4 9,-14 23,-31 13,-16 20,-25 20,-28l12 -3c-1,12 -1,26 -1,43 0,14 0,27 1,39zm84 -80l-1 12c-9,0 -18,-1 -27,-1 0,8 0,18 0,30 0,14 0,27 1,39l-15 0c1,-11 1,-24 1,-39 0,-12 0,-22 -1,-30 -8,0 -18,1 -27,1l1 -12 68 0zm82 80l-15 0c1,-11 1,-23 1,-37l-40 0c0,12 0,25 1,37l-14 0c0,-11 1,-24 1,-39 0,-16 -1,-29 -3,-40l16 -3c0,4 -1,16 -1,34l40 0c0,-12 -1,-23 -3,-31l17 -3c-1,12 -1,26 -1,43 0,14 0,27 1,39zm91 -49c0,2 0,5 0,9l-58 1c1,8 4,15 10,21 5,5 13,8 23,8 8,0 16,-1 24,-3l-2 12c-5,2 -13,3 -24,3 -14,0 -25,-4 -33,-12 -8,-8 -12,-17 -12,-29 0,-12 4,-23 11,-32 7,-8 16,-13 28,-13 11,0 19,3 25,10 6,6 8,14 8,25zm-14 0c0,-16 -6,-24 -19,-24 -14,0 -22,8 -24,25l43 -1zm95 36l-1 11c-4,3 -10,4 -18,4 -15,0 -26,-4 -33,-12 -8,-8 -12,-18 -12,-29 0,-12 4,-22 12,-31 8,-9 19,-13 32,-13 7,0 12,1 17,2l-3 13c-5,-2 -11,-3 -18,-3 -8,0 -14,3 -19,8 -4,6 -7,13 -7,21 0,9 3,17 9,23 5,6 13,9 24,9 4,0 10,-1 17,-3zm133 -28c0,14 -4,25 -13,33 -8,7 -18,11 -29,11 -16,0 -26,-6 -32,-17 -4,-9 -7,-23 -7,-42 0,-21 5,-36 14,-46 8,-8 19,-13 35,-14 8,-1 18,-2 28,-4l0 14c-5,0 -15,1 -30,3 -12,1 -20,4 -24,8 -6,5 -9,15 -9,28l1 0c7,-8 16,-12 28,-12 11,0 20,4 27,10 7,6 11,15 11,28zm-15 3c0,-8 -2,-16 -6,-21 -4,-6 -11,-9 -19,-9 -12,0 -21,4 -27,12 0,17 2,30 6,37 5,8 11,12 20,12 8,0 15,-3 19,-9 5,-6 7,-13 7,-22zm102 38l-15 0c0,-10 1,-22 1,-39 0,-4 0,-11 1,-20l-1 0c-1,4 -9,14 -23,31 -14,15 -20,25 -20,28l-12 0c0,-11 1,-24 1,-39 0,-16 -1,-29 -3,-40l17 -3c-1,11 -1,24 -1,40 0,6 -1,13 -1,22l1 0c1,-4 9,-14 23,-31 13,-16 20,-25 20,-28l11 -3c0,12 -1,26 -1,43 0,14 1,27 2,39zm78 -24c0,9 -3,15 -10,20 -7,4 -15,6 -24,6 -10,0 -19,-1 -27,-3l1 -12c7,3 15,5 26,5 14,0 21,-5 21,-14 0,-10 -8,-14 -25,-14 -5,0 -10,0 -15,0l2 -11c4,0 9,1 13,1 15,0 23,-5 23,-14 0,-8 -7,-11 -20,-11 -9,0 -17,1 -24,3l1 -11c8,-3 16,-4 25,-4 20,0 30,6 30,19 0,9 -4,16 -13,19l0 1c4,1 8,3 11,6 3,3 5,8 5,14zm87 24l-15 0c1,-11 1,-23 2,-37l-41 0c0,12 1,25 1,37l-14 0c1,-11 1,-24 1,-39 0,-16 -1,-29 -3,-40l16 -3c0,4 0,16 -1,34l40 0c0,-12 -1,-23 -2,-31l16 -3c-1,12 -1,26 -1,43 0,14 0,27 1,39zm92 -49c0,2 -1,5 -1,9l-58 1c1,8 4,15 10,21 6,5 13,8 23,8 8,0 16,-1 24,-3l-2 12c-5,2 -13,3 -23,3 -15,0 -26,-4 -34,-12 -8,-8 -11,-17 -11,-29 0,-12 3,-23 10,-32 7,-8 17,-13 28,-13 11,0 19,3 25,10 6,6 9,14 9,25zm-14 0c0,-16 -7,-24 -20,-24 -14,0 -22,8 -24,25l44 -1zm94 36l-1 11c-4,3 -10,4 -18,4 -14,0 -25,-4 -33,-12 -8,-8 -12,-18 -12,-29 0,-12 4,-22 12,-31 8,-9 19,-13 33,-13 6,0 12,1 16,2l-2 13c-6,-2 -12,-3 -18,-3 -8,0 -15,3 -19,8 -5,6 -8,13 -8,21 0,9 3,17 9,23 6,6 14,9 24,9 4,0 10,-1 17,-3zm46 -36l-1 11 -36 1 1 -11 36 -1zm82 49l-15 0c0,-1 -1,-2 -2,-4 -4,-12 -7,-20 -12,-25 -4,-4 -9,-7 -16,-7 -2,0 -5,0 -9,1 0,12 1,24 2,35l-15 0c0,-11 1,-24 1,-39 0,-16 -1,-29 -3,-40l16 -3c0,11 -1,23 -1,36 4,0 7,0 9,0 13,0 22,-10 27,-30 0,-1 1,-3 1,-4l14 0c0,1 -1,4 -3,7 -6,18 -13,28 -21,31l0 1c5,1 10,5 13,10 4,5 7,12 11,22 1,3 2,6 3,9zm81 0l-15 0c1,-10 1,-22 1,-37 0,-11 0,-22 -1,-33l-16 0c-2,7 -4,13 -6,19 -2,6 -4,11 -6,17 -3,5 -5,10 -8,14 -2,5 -5,8 -7,11 -3,4 -5,6 -8,8 -3,2 -5,2 -8,2l-1 -13c2,0 3,-1 5,-3 2,-2 4,-4 6,-7 2,-3 5,-7 7,-11 2,-4 4,-9 6,-14 2,-5 4,-10 6,-16 2,-5 4,-11 5,-17l28 0 12 -2c-1,12 -2,26 -2,43 0,14 1,27 2,39zm85 0l-13 1c-1,-3 -1,-6 -1,-8l-1 0c-7,6 -16,9 -28,9 -7,0 -12,-2 -17,-6 -4,-3 -7,-9 -7,-16 0,-8 4,-15 11,-21 8,-5 21,-8 41,-8 0,-1 0,-3 0,-5 0,-7 -2,-11 -5,-13 -4,-3 -10,-4 -17,-4 -9,0 -18,1 -26,3l1 -11c9,-3 18,-4 29,-4 10,0 18,2 24,6 5,4 8,12 8,21 0,3 0,8 -1,15 0,7 0,11 0,14 0,10 1,19 2,27zm-15 -16c0,-9 0,-17 0,-23 -11,0 -19,0 -24,2 -9,3 -14,8 -14,16 0,8 5,12 16,12 9,0 17,-3 22,-7zm98 3l-1 11c-4,3 -11,4 -18,4 -15,0 -26,-4 -34,-12 -7,-8 -11,-18 -11,-29 0,-12 4,-22 12,-31 8,-9 19,-13 32,-13 7,0 12,1 16,2l-2 13c-6,-2 -12,-3 -18,-3 -8,0 -14,3 -19,8 -5,6 -7,13 -7,21 0,9 3,17 9,23 5,6 13,9 23,9 5,0 10,-1 18,-3zm78 0l-1 11c-5,3 -11,4 -18,4 -15,0 -26,-4 -34,-12 -7,-8 -11,-18 -11,-29 0,-12 4,-22 12,-31 8,-9 19,-13 32,-13 7,0 12,1 16,2l-2 13c-6,-2 -12,-3 -18,-3 -8,0 -14,3 -19,8 -5,6 -7,13 -7,21 0,9 3,17 8,23 6,6 14,9 24,9 5,0 10,-1 18,-3zm80 13l-13 1c-1,-3 -1,-6 -1,-8l-1 0c-7,6 -17,9 -28,9 -7,0 -12,-2 -17,-6 -5,-3 -7,-9 -7,-16 0,-8 4,-15 11,-21 7,-5 21,-8 41,-8 0,-1 0,-3 0,-5 0,-7 -2,-11 -6,-13 -3,-3 -9,-4 -16,-4 -9,0 -18,1 -27,3l2 -11c8,-3 18,-4 29,-4 10,0 18,2 23,6 6,4 8,12 8,21 0,3 0,8 0,15 0,7 0,11 0,14 0,10 0,19 2,27zm-15 -16c0,-9 0,-17 0,-23 -11,0 -19,0 -25,2 -9,3 -13,8 -13,16 0,8 5,12 16,12 9,0 16,-3 22,-7z"/>
   <path class="fil1" d="M1688 119l-7 51 -18 92c-3,18 -5,32 -5,46 0,53 29,75 74,75 34,0 68,-15 98,-50l1 0 -6 44 72 0c4,-23 8,-50 15,-83l33 -173 -81 0 -21 109c-11,56 -42,89 -71,89 -22,0 -30,-14 -30,-32 0,-9 2,-21 4,-31l16 -83c13,-65 -40,-66 -74,-54zm-1013 258l0 0c-2,-34 3,-84 10,-118l26 -131c-24,-7 -60,-13 -92,-13 -136,0 -201,86 -201,175 0,56 37,93 87,93 34,0 70,-14 97,-59l1 0c-6,71 44,61 72,53zm-65 -149l0 0c-12,68 -46,92 -71,92 -23,0 -36,-17 -36,-44 0,-50 41,-101 93,-101 10,0 17,1 23,2l-9 51zm-214 77l0 0c-15,6 -36,15 -62,15 -31,0 -58,-17 -58,-55 0,-45 35,-88 96,-88 19,0 31,3 41,7l20 -59c-14,-5 -36,-10 -60,-10 -106,0 -182,68 -182,159 0,73 53,109 120,109 93,0 100,-54 85,-78zm472 -128l0 0 -10 59c-4,24 -15,53 -49,42 -40,-13 -13,-103 59,-101zm70 60l0 0 11 -60c87,-4 66,84 19,101 -22,7 -30,0 -32,-13 -1,-8 1,-18 2,-28zm-26 140l0 0 8 -42c23,16 64,8 84,1 34,-13 66,-39 76,-80 32,-123 -70,-144 -158,-144 -88,0 -206,19 -214,144 -3,40 14,68 42,80 25,10 62,9 89,-4l-9 45 82 0zm578 -139l0 0 10 -61c59,-11 74,25 69,54 -5,27 -22,49 -53,49 -25,0 -31,-17 -26,-42zm-27 139l0 0 9 -47c20,11 47,15 72,12 59,-7 98,-50 104,-109 5,-53 -13,-85 -46,-102 -52,-27 -129,-16 -175,-2l-7 52 -38 196 81 0zm-108 0l0 0c-1,-34 3,-84 10,-118l26 -131c-23,-7 -59,-13 -92,-13 -136,0 -201,86 -201,175 0,56 37,93 87,93 34,0 71,-14 97,-59l1 0c-6,71 44,61 72,53zm-65 -149l0 0c-12,68 -46,92 -70,92 -24,0 -37,-17 -37,-44 0,-50 41,-101 94,-101 9,0 16,1 22,2l-9 51z"/>
   <path class="fil1" d="M343 537c0,11 -4,21 -12,29 -7,8 -19,13 -35,14 0,5 0,11 1,18l-15 0c0,-6 0,-12 0,-18 -16,-1 -28,-5 -35,-12 -7,-7 -11,-16 -11,-27 0,-11 4,-21 11,-29 8,-8 20,-13 35,-14 0,-5 0,-10 0,-14l15 0c-1,4 -1,8 -1,14 16,1 28,5 35,12 8,7 12,16 12,27zm-14 2c0,-18 -11,-29 -33,-31 0,10 -1,20 -1,29 0,11 1,22 1,33 22,-2 33,-12 33,-31zm-46 2c0,-11 0,-22 0,-33 -22,2 -33,12 -33,31 0,19 11,29 33,31 0,-10 0,-20 0,-29zm145 57l-15 0c1,-10 1,-22 1,-39 0,-4 1,-11 1,-20l-1 0c-1,4 -9,14 -23,31 -13,15 -20,25 -20,28l-12 0c1,-11 1,-24 1,-39 0,-16 -1,-29 -3,-40l17 -3c-1,11 -1,24 -1,40 0,6 0,13 0,22l0 0c2,-4 9,-14 23,-31 13,-16 20,-25 20,-28l12 -3c-1,12 -1,26 -1,43 0,14 0,27 1,39zm84 -80l-1 12c-9,0 -18,-1 -27,-1 0,8 0,18 0,30 0,14 0,27 1,39l-15 0c1,-11 1,-24 1,-39 0,-12 0,-22 -1,-30 -8,0 -18,1 -27,1l1 -12 68 0zm82 80l-15 0c1,-11 1,-23 1,-37l-40 0c0,12 0,25 1,37l-14 0c0,-11 1,-24 1,-39 0,-16 -1,-29 -3,-40l16 -3c0,4 -1,16 -1,34l40 0c0,-12 -1,-23 -3,-31l17 -3c-1,12 -1,26 -1,43 0,14 0,27 1,39zm91 -49c0,2 0,5 0,9l-58 1c1,8 4,15 10,21 5,5 13,8 23,8 8,0 16,-1 24,-3l-2 12c-5,2 -13,3 -24,3 -14,0 -25,-4 -33,-12 -8,-8 -12,-17 -12,-29 0,-12 4,-23 11,-32 7,-8 16,-13 28,-13 11,0 19,3 25,10 6,6 8,14 8,25zm-14 0c0,-16 -6,-24 -19,-24 -14,0 -22,8 -24,25l43 -1zm95 36l-1 11c-4,3 -10,4 -18,4 -15,0 -26,-4 -33,-12 -8,-8 -12,-18 -12,-29 0,-12 4,-22 12,-31 8,-9 19,-13 32,-13 7,0 12,1 17,2l-3 13c-5,-2 -11,-3 -18,-3 -8,0 -14,3 -19,8 -4,6 -7,13 -7,21 0,9 3,17 9,23 5,6 13,9 24,9 4,0 10,-1 17,-3zm133 -28c0,14 -4,25 -13,33 -8,7 -18,11 -29,11 -16,0 -26,-6 -32,-17 -4,-9 -7,-23 -7,-42 0,-21 5,-36 14,-46 8,-8 19,-13 35,-14 8,-1 18,-2 28,-4l0 14c-5,0 -15,1 -30,3 -12,1 -20,4 -24,8 -6,5 -9,15 -9,28l1 0c7,-8 16,-12 28,-12 11,0 20,4 27,10 7,6 11,15 11,28zm-15 3c0,-8 -2,-16 -6,-21 -4,-6 -11,-9 -19,-9 -12,0 -21,4 -27,12 0,17 2,30 6,37 5,8 11,12 20,12 8,0 15,-3 19,-9 5,-6 7,-13 7,-22zm102 38l-15 0c0,-10 1,-22 1,-39 0,-4 0,-11 1,-20l-1 0c-1,4 -9,14 -23,31 -14,15 -20,25 -20,28l-12 0c0,-11 1,-24 1,-39 0,-16 -1,-29 -3,-40l17 -3c-1,11 -1,24 -1,40 0,6 -1,13 -1,22l1 0c1,-4 9,-14 23,-31 13,-16 20,-25 20,-28l11 -3c0,12 -1,26 -1,43 0,14 1,27 2,39zm78 -24c0,9 -3,15 -10,20 -7,4 -15,6 -24,6 -10,0 -19,-1 -27,-3l1 -12c7,3 15,5 26,5 14,0 21,-5 21,-14 0,-10 -8,-14 -25,-14 -5,0 -10,0 -15,0l2 -11c4,0 9,1 13,1 15,0 23,-5 23,-14 0,-8 -7,-11 -20,-11 -9,0 -17,1 -24,3l1 -11c8,-3 16,-4 25,-4 20,0 30,6 30,19 0,9 -4,16 -13,19l0 1c4,1 8,3 11,6 3,3 5,8 5,14zm87 24l-15 0c1,-11 1,-23 2,-37l-41 0c0,12 1,25 1,37l-14 0c1,-11 1,-24 1,-39 0,-16 -1,-29 -3,-40l16 -3c0,4 0,16 -1,34l40 0c0,-12 -1,-23 -2,-31l16 -3c-1,12 -1,26 -1,43 0,14 0,27 1,39zm92 -49c0,2 -1,5 -1,9l-58 1c1,8 4,15 10,21 6,5 13,8 23,8 8,0 16,-1 24,-3l-2 12c-5,2 -13,3 -23,3 -15,0 -26,-4 -34,-12 -8,-8 -11,-17 -11,-29 0,-12 3,-23 10,-32 7,-8 17,-13 28,-13 11,0 19,3 25,10 6,6 9,14 9,25zm-14 0c0,-16 -7,-24 -20,-24 -14,0 -22,8 -24,25l44 -1zm94 36l-1 11c-4,3 -10,4 -18,4 -14,0 -25,-4 -33,-12 -8,-8 -12,-18 -12,-29 0,-12 4,-22 12,-31 8,-9 19,-13 33,-13 6,0 12,1 16,2l-2 13c-6,-2 -12,-3 -18,-3 -8,0 -15,3 -19,8 -5,6 -8,13 -8,21 0,9 3,17 9,23 6,6 14,9 24,9 4,0 10,-1 17,-3zm46 -36l-1 11 -36 1 1 -11 36 -1zm82 49l-15 0c0,-1 -1,-2 -2,-4 -4,-12 -7,-20 -12,-25 -4,-4 -9,-7 -16,-7 -2,0 -5,0 -9,1 0,12 1,24 2,35l-15 0c0,-11 1,-24 1,-39 0,-16 -1,-29 -3,-40l16 -3c0,11 -1,23 -1,36 4,0 7,0 9,0 13,0 22,-10 27,-30 0,-1 1,-3 1,-4l14 0c0,1 -1,4 -3,7 -6,18 -13,28 -21,31l0 1c5,1 10,5 13,10 4,5 7,12 11,22 1,3 2,6 3,9zm81 0l-15 0c1,-10 1,-22 1,-37 0,-11 0,-22 -1,-33l-16 0c-2,7 -4,13 -6,19 -2,6 -4,11 -6,17 -3,5 -5,10 -8,14 -2,5 -5,8 -7,11 -3,4 -5,6 -8,8 -3,2 -5,2 -8,2l-1 -13c2,0 3,-1 5,-3 2,-2 4,-4 6,-7 2,-3 5,-7 7,-11 2,-4 4,-9 6,-14 2,-5 4,-10 6,-16 2,-5 4,-11 5,-17l28 0 12 -2c-1,12 -2,26 -2,43 0,14 1,27 2,39zm85 0l-13 1c-1,-3 -1,-6 -1,-8l-1 0c-7,6 -16,9 -28,9 -7,0 -12,-2 -17,-6 -4,-3 -7,-9 -7,-16 0,-8 4,-15 11,-21 8,-5 21,-8 41,-8 0,-1 0,-3 0,-5 0,-7 -2,-11 -5,-13 -4,-3 -10,-4 -17,-4 -9,0 -18,1 -26,3l1 -11c9,-3 18,-4 29,-4 10,0 18,2 24,6 5,4 8,12 8,21 0,3 0,8 -1,15 0,7 0,11 0,14 0,10 1,19 2,27zm-15 -16c0,-9 0,-17 0,-23 -11,0 -19,0 -24,2 -9,3 -14,8 -14,16 0,8 5,12 16,12 9,0 17,-3 22,-7zm98 3l-1 11c-4,3 -11,4 -18,4 -15,0 -26,-4 -34,-12 -7,-8 -11,-18 -11,-29 0,-12 4,-22 12,-31 8,-9 19,-13 32,-13 7,0 12,1 16,2l-2 13c-6,-2 -12,-3 -18,-3 -8,0 -14,3 -19,8 -5,6 -7,13 -7,21 0,9 3,17 9,23 5,6 13,9 23,9 5,0 10,-1 18,-3zm78 0l-1 11c-5,3 -11,4 -18,4 -15,0 -26,-4 -34,-12 -7,-8 -11,-18 -11,-29 0,-12 4,-22 12,-31 8,-9 19,-13 32,-13 7,0 12,1 16,2l-2 13c-6,-2 -12,-3 -18,-3 -8,0 -14,3 -19,8 -5,6 -7,13 -7,21 0,9 3,17 8,23 6,6 14,9 24,9 5,0 10,-1 18,-3zm80 13l-13 1c-1,-3 -1,-6 -1,-8l-1 0c-7,6 -17,9 -28,9 -7,0 -12,-2 -17,-6 -5,-3 -7,-9 -7,-16 0,-8 4,-15 11,-21 7,-5 21,-8 41,-8 0,-1 0,-3 0,-5 0,-7 -2,-11 -6,-13 -3,-3 -9,-4 -16,-4 -9,0 -18,1 -27,3l2 -11c8,-3 18,-4 29,-4 10,0 18,2 23,6 6,4 8,12 8,21 0,3 0,8 0,15 0,7 0,11 0,14 0,10 0,19 2,27zm-15 -16c0,-9 0,-17 0,-23 -11,0 -19,0 -25,2 -9,3 -13,8 -13,16 0,8 5,12 16,12 9,0 16,-3 22,-7z"/>
  </g>
 </g>
</svg>
