<?xml version="1.0" encoding="UTF-8"?>
<!DOCTYPE svg PUBLIC "-//W3C//DTD SVG 1.1//EN" "http://www.w3.org/Graphics/SVG/1.1/DTD/svg11.dtd">
<!-- Creator: CorelDRAW X7 -->
<svg xmlns="http://www.w3.org/2000/svg" preserveAspectRatio="none" xml:space="preserve" width="10001px" height="3441px" version="1.1" style="shape-rendering:geometricPrecision; text-rendering:geometricPrecision; image-rendering:optimizeQuality; fill-rule:evenodd; clip-rule:evenodd"
viewBox="0 0 10028 3451"
 xmlns:xlink="http://www.w3.org/1999/xlink">
 <defs>
  <style type="text/css">
   <![CDATA[
    .fil0 {fill:#186D9C}
    .fil1 {fill:#7EBCDB;fill-rule:nonzero}
   ]]>
  </style>
 </defs>
 <g id="Слой_x0020_1">
  <metadata id="CorelCorpID_0Corel-Layer"/>
  <path class="fil0" d="M1519 706c75,47 392,19 527,81 44,19 236,-28 285,-8l632 -363c56,-122 877,-35 1087,23 267,73 597,264 732,264 20,0 42,-4 65,-11 178,-60 184,-283 356,-314 136,-25 241,129 370,181 46,19 90,27 134,27 279,0 539,-329 1009,-466 148,-43 292,-60 430,-60 238,0 457,51 640,105 133,37 281,90 399,146 6,3 12,6 18,9l3 1 0 0c86,40 160,65 228,127 130,82 286,177 608,306 28,12 79,32 143,55 76,29 172,62 273,92 152,45 316,82 441,82 51,0 95,-6 129,-20l-4 1139 4 1268c-110,27 -206,39 -282,48 -19,3 -39,5 -58,7 -61,5 -120,8 -177,8 -7,0 -14,0 -21,0 -350,-4 -487,-54 -644,-112 -423,-75 -139,-393 -337,-517 -75,-46 -391,-19 -527,-80 -44,-20 -236,27 -285,7l-632 363c-56,122 -877,35 -1087,-22 -266,-74 -597,-264 -731,-264 -21,0 -42,3 -65,11 -179,59 -185,282 -357,313 -136,26 -241,-129 -369,-181 -46,-18 -91,-27 -135,-27 -279,0 -539,329 -1008,466 -148,43 -293,61 -431,61 -238,0 -457,-51 -640,-106 -133,-37 -281,-90 -399,-146 -6,-3 -12,-6 -18,-8l-3 -2 0 0c-86,-40 -159,-65 -227,-127 -131,-81 -287,-177 -608,-306 -29,-11 -80,-31 -144,-55 -76,-28 -172,-62 -273,-92 -152,-45 -316,-82 -441,-82 -50,0 -94,6 -129,20l0 -328 0 -255 0 -1824c110,-26 206,-38 282,-48 19,-2 39,-5 58,-6 61,-6 120,-9 177,-9 7,0 14,0 22,1 350,3 486,53 643,111 423,75 140,394 337,517z"/>
  <path class="fil1" d="M10028 820c-1,7 -23,1 -34,1 -130,0 -291,-24 -435,-54 -95,-19 -184,-41 -254,-59 -59,-16 -105,-29 -131,-36 -292,-84 -424,-146 -533,-199 -51,-41 -119,-57 -196,-83l0 0 -2 -1c-6,-2 -11,-4 -16,-6 -105,-36 -241,-70 -368,-95 6,-6 12,-12 18,-18l-1 0c-6,6 -11,12 -17,18 -172,-35 -383,-68 -630,-68 -143,0 -298,11 -466,39 -530,89 -904,303 -1193,303 -46,0 -90,-5 -131,-17 -133,-39 -164,-120 -290,-120 -11,0 -23,0 -36,2 -189,20 -266,166 -469,204 -27,5 -50,7 -71,7 -404,0 -1385,-602 -1971,-35 -153,148 -101,234 -624,183 -515,-85 -582,-170 -693,-281 -47,-46 3,-110 -33,-142 -139,-127 -337,-128 -881,-132 -7,0 -15,0 -22,0 -60,0 -122,2 -186,6 -21,1 -42,2 -63,4 -82,6 -170,7 -294,25l-1 -253c626,-5 1075,64 1495,241 257,109 -63,185 52,245 73,38 146,70 256,100 29,8 61,15 95,23 706,155 609,-179 914,-305 173,-71 623,-44 1000,19 334,55 639,152 777,136 279,-32 -32,-190 254,-222 53,-6 108,-9 164,-9 149,0 301,23 417,77 144,68 119,131 231,141 8,0 16,1 25,1 165,0 342,-134 587,-242 334,-147 678,-195 918,-211 92,-6 169,-7 224,-7 21,0 38,0 52,0 327,3 557,73 810,178 66,27 134,58 206,89 11,5 21,10 32,15 351,156 341,224 651,308 108,29 230,54 350,70 94,12 188,19 273,20 2,0 4,0 6,0 63,0 233,16 234,-18l0 158z"/>
  <path class="fil1" d="M1 2573c0,-6 22,0 33,0 130,0 291,24 435,54 95,19 184,41 254,59 59,16 105,29 131,36 292,84 424,146 534,199 50,41 118,57 195,83l0 0 2 1c6,2 11,4 17,6 104,36 241,70 367,94 -6,6 -12,13 -18,19l2 0c5,-6 10,-12 16,-19 173,36 383,69 630,69 143,0 299,-11 466,-39 530,-89 904,-303 1194,-303 45,0 89,5 131,17 132,38 163,120 289,120 11,0 24,-1 37,-2 188,-20 265,-166 469,-204 26,-5 49,-7 71,-7 403,0 1385,602 1970,35 154,-148 102,-234 624,-183 516,85 582,170 693,281 47,46 -2,110 33,142 140,127 338,128 881,132 8,0 15,0 23,0 59,0 121,-2 186,-6 20,-1 41,-2 62,-4 83,-6 170,-7 295,-25l0 253c-625,5 -1075,-64 -1494,-242 -258,-108 63,-184 -52,-244 -73,-38 -146,-70 -257,-100 -29,-8 -60,-15 -95,-23 -706,-155 -609,179 -914,305 -173,71 -623,44 -1000,-19 -334,-56 -638,-152 -777,-136 -279,32 32,189 -254,222 -53,6 -108,9 -164,9 -149,0 -301,-23 -416,-77 -145,-68 -120,-131 -232,-141 -8,0 -16,-1 -24,-1 -166,0 -342,134 -588,242 -333,147 -677,195 -918,211 -92,6 -169,7 -224,7 -20,0 -38,0 -52,0 -327,-3 -556,-73 -810,-178 -66,-28 -134,-58 -206,-90 -11,-4 -21,-9 -32,-14 -351,-156 -341,-224 -651,-308 -108,-30 -229,-54 -350,-70 -94,-12 -187,-19 -273,-20 -2,0 -4,0 -6,0 -63,0 -232,-16 -233,17l0 -158z"/>
 </g>
</svg>
