<?xml version="1.0" encoding="UTF-8"?>
<!DOCTYPE svg PUBLIC "-//W3C//DTD SVG 1.1//EN" "http://www.w3.org/Graphics/SVG/1.1/DTD/svg11.dtd">
<!-- Creator: CorelDRAW X7 -->
<svg xmlns="http://www.w3.org/2000/svg" preserveAspectRatio="none" xml:space="preserve" width="10006px" height="2051px" version="1.1" style="shape-rendering:geometricPrecision; text-rendering:geometricPrecision; image-rendering:optimizeQuality; fill-rule:evenodd; clip-rule:evenodd"
viewBox="0 0 9958 2041"
 xmlns:xlink="http://www.w3.org/1999/xlink">
 <defs>
  <style type="text/css">
   <![CDATA[
    .fil0 {fill:#186D9C}
    .fil1 {fill:#7EBCDB;fill-rule:nonzero}
   ]]>
  </style>
 </defs>
 <g id="Слой_x0020_1">
  <metadata id="CorelCorpID_0Corel-Layer"/>
  <path class="fil0" d="M8450 678c-74,36 -388,15 -523,62 -43,16 -234,-21 -282,-5l-628 -282c-56,-95 -870,-28 -1079,17 -264,57 -592,205 -726,205 -20,0 -42,-3 -64,-8 -177,-46 -183,-220 -354,-244 -135,-19 -239,101 -367,141 -46,14 -90,21 -134,21 -276,0 -534,-256 -1000,-362 -147,-34 -291,-47 -427,-47 -237,0 -454,40 -636,82 -132,29 -279,70 -396,113 -6,2 -12,5 -18,7l-3 1 0 0c-85,31 -158,50 -226,99 -129,63 -284,137 -603,237 -28,9 -79,25 -142,43 -76,22 -171,48 -271,71 -152,35 -314,64 -438,64 -50,0 -99,-6 -133,-16l0 1164 9948 0 10 -1802c-109,-21 -205,-30 -280,-38 -19,-2 -38,-3 -58,-5 -60,-4 -118,-6 -175,-6 -7,0 -14,0 -22,0 -347,3 -482,41 -638,86 -420,59 -139,306 -335,402z"/>
  <path class="fil1" d="M0 814c0,7 27,1 39,1 128,0 289,-24 431,-53 95,-20 183,-41 253,-60 58,-15 104,-28 130,-35 290,-84 420,-145 529,-198 50,-40 118,-56 194,-82l0 0 2 -1c6,-2 11,-4 16,-6 104,-36 239,-70 365,-94 -6,-6 -12,-12 -18,-18l2 0c5,6 10,12 16,18 171,-35 380,-68 626,-68 142,0 296,11 462,39 526,89 897,301 1184,301 46,0 89,-5 131,-17 131,-38 162,-119 287,-119 11,0 23,0 36,2 187,20 263,164 466,202 26,5 49,7 70,7 401,0 1375,-598 1956,-35 152,147 101,233 619,182 512,-84 578,-168 688,-279 47,-46 -2,-109 33,-141 138,-125 335,-127 874,-130 8,-1 15,-1 23,-1 58,0 120,2 184,6 21,1 41,2 62,4 82,6 169,7 292,25l1 -251c-621,-5 -1067,63 -1483,239 -256,108 62,184 -52,243 -72,38 -145,70 -254,99 -29,8 -61,16 -95,23 -701,154 -604,-177 -907,-302 -172,-71 -619,-44 -993,18 -331,55 -633,151 -770,135 -277,-31 31,-188 -253,-220 -52,-6 -107,-9 -163,-9 -147,0 -298,23 -413,77 -143,67 -118,130 -229,139 -9,1 -17,1 -25,1 -164,0 -340,-132 -583,-240 -331,-145 -673,-193 -911,-209 -92,-6 -168,-7 -223,-7 -20,0 -37,0 -51,0 -325,3 -553,72 -804,177 -66,27 -134,57 -205,88 -10,5 -21,10 -31,15 -349,155 -339,222 -647,306 -107,29 -227,53 -347,69 -93,12 -186,19 -271,19 -2,1 -4,1 -6,1 -62,0 -236,15 -237,-18l0 157z"/>
 </g>
</svg>
