<?xml version="1.0" encoding="UTF-8"?>
<!DOCTYPE svg PUBLIC "-//W3C//DTD SVG 1.1//EN" "http://www.w3.org/Graphics/SVG/1.1/DTD/svg11.dtd">
<!-- Creator: CorelDRAW X7 -->
<svg xmlns="http://www.w3.org/2000/svg" preserveAspectRatio="none" xml:space="preserve"  version="1.1" style="shape-rendering:geometricPrecision; text-rendering:geometricPrecision; image-rendering:optimizeQuality; fill-rule:evenodd; clip-rule:evenodd"
viewBox="0 0 10000 1500"  width="1200px" height="180px"

 xmlns:xlink="http://www.w3.org/1999/xlink">
 <defs>
  <style type="text/css">
   <![CDATA[
    .fil0 {fill:#186D9C}
    .fil1 {fill:white;fill-rule:nonzero}
   ]]>
  </style>
 </defs>
 <g id="Слой_x0020_1">
  <metadata id="CorelCorpID_0Corel-Layer"/>
  <path class="fil0" d="M8546 844c-75,-47 -393,-20 -529,-81 -44,-20 -237,27 -286,7l-634 365c-57,122 -881,35 -1093,-23 -267,-74 -599,-265 -734,-265 -21,0 -43,3 -66,11 -179,59 -185,284 -357,315 -137,25 -243,-130 -372,-182 -46,-18 -91,-27 -135,-27 -280,0 -541,330 -1013,468 -148,44 -293,61 -432,61 -239,0 -459,-51 -643,-106 -134,-38 -282,-90 -401,-147 -6,-3 -12,-6 -18,-8l-3 -2 0 0c-86,-40 -160,-65 -228,-128 -131,-81 -288,-177 -611,-307 -29,-11 -80,-32 -144,-55 -77,-29 -173,-62 -274,-92 -153,-46 -318,-83 -443,-83 -51,0 -95,6 -130,20l0 -585 10072 0 0 1412c-110,26 -207,39 -283,48 -19,3 -39,5 -58,7 -61,5 -120,8 -178,8 -7,0 -14,0 -22,0 -351,-4 -488,-54 -646,-112 -425,-76 -140,-395 -339,-519z"/>
  <path class="fil1" d="M1 612c0,-7 22,-1 33,-1 131,0 293,25 437,54 96,20 185,41 255,60 60,15 106,28 132,36 294,84 426,147 536,200 50,41 119,57 196,83l0 0 2 1c6,2 11,4 17,6 105,36 242,71 368,95 -5,6 -11,12 -17,18l1 1c6,-6 11,-12 16,-19 174,36 386,69 634,69 143,0 299,-11 467,-39 533,-90 909,-305 1199,-305 46,0 90,5 132,18 133,38 164,120 291,120 11,0 23,-1 36,-2 189,-20 267,-166 472,-205 26,-5 49,-7 71,-7 405,0 1391,605 1979,36 154,-149 102,-236 627,-184 518,84 584,170 696,281 47,47 -3,111 33,143 140,127 339,129 885,132 7,0 15,0 22,0 60,0 122,-1 187,-5 21,-1 42,-2 63,-4 83,-6 171,-8 296,-25l1 254c-629,5 -1080,-64 -1502,-243 -258,-109 63,-185 -52,-245 -73,-39 -147,-71 -257,-101 -30,-7 -61,-15 -96,-23 -709,-155 -611,180 -918,306 -174,72 -626,44 -1005,-19 -335,-55 -641,-152 -780,-136 -280,32 32,190 -255,223 -53,6 -109,9 -165,9 -149,0 -302,-23 -418,-78 -145,-68 -120,-131 -232,-141 -9,-1 -17,-1 -25,-1 -166,0 -344,134 -590,243 -335,147 -681,196 -922,212 -93,6 -170,7 -226,7 -20,0 -38,0 -52,-1 -328,-3 -558,-72 -813,-178 -67,-28 -135,-58 -207,-90 -11,-5 -21,-9 -32,-14 -353,-157 -342,-226 -654,-310 -108,-29 -231,-54 -352,-70 -94,-12 -188,-19 -274,-20 -2,0 -4,0 -6,0 -63,0 -233,-16 -234,17l0 -158z"/>
 </g>
</svg>
