<?xml version="1.0" encoding="UTF-8"?>
<!DOCTYPE svg PUBLIC "-//W3C//DTD SVG 1.1//EN" "http://www.w3.org/Graphics/SVG/1.1/DTD/svg11.dtd">
<!-- Creator: CorelDRAW X7 -->
<svg xmlns="http://www.w3.org/2000/svg" preserveAspectRatio="none" xml:space="preserve" version="1.1" style="shape-rendering:geometricPrecision; text-rendering:geometricPrecision; image-rendering:optimizeQuality; fill-rule:evenodd; clip-rule:evenodd"
viewBox="0 0 9949 5458"
 xmlns:xlink="http://www.w3.org/1999/xlink">
 <defs>
  <style type="text/css">
   <![CDATA[
    .fil0 {fill:#186D9C}
    .fil1 {fill:#7EBCDB;fill-rule:nonzero}
   ]]>
  </style>
 </defs>
 <g id="Слой_x0020_1">
  <metadata id="CorelCorpID_0Corel-Layer"/>
  <path class="fil0" d="M1509 4817c74,-46 388,-19 522,-80 44,-20 234,27 283,7l627 360c56,121 869,35 1078,-22 264,-73 592,-262 726,-262 20,0 41,4 64,11 177,59 183,280 354,311 135,25 239,-128 366,-179 46,-19 90,-27 134,-27 277,0 534,326 1000,462 147,43 290,60 427,60 236,0 453,-51 635,-105 132,-37 278,-89 396,-144 6,-3 12,-6 18,-9l2 -1 0 0c86,-40 159,-65 226,-127 129,-80 284,-175 603,-303 29,-11 79,-31 142,-55 76,-28 171,-61 271,-90 151,-45 314,-82 438,-82 50,0 93,6 128,20l0 -2265 -1 0 1 -2217c-109,-26 -205,-38 -280,-48 -19,-2 -39,-4 -58,-6 -60,-6 -118,-8 -175,-8 -7,0 -14,0 -21,0 -348,4 -483,53 -639,110 -420,75 -138,391 -334,513 -75,46 -388,19 -523,80 -43,20 -234,-27 -282,-7l-627 -360c-56,-122 -870,-35 -1079,22 -264,73 -591,262 -725,262 -21,0 -42,-4 -65,-11 -177,-59 -182,-280 -353,-311 -135,-25 -239,128 -367,179 -45,19 -90,27 -133,27 -277,0 -535,-326 -1000,-462 -147,-43 -291,-60 -427,-60 -237,0 -453,51 -636,105 -132,36 -278,89 -395,144 -6,3 -12,6 -18,9l-3 1 0 0c-85,40 -158,64 -226,126 -129,81 -284,176 -603,304 -28,11 -78,31 -142,55 -76,28 -171,61 -271,90 -151,45 -313,82 -437,82 -50,0 -94,-6 -128,-20l-2 1488 6 0 -4 2994c109,26 204,38 279,48 20,2 39,4 58,6 60,6 119,8 175,8 8,0 15,0 22,0 347,-4 482,-53 638,-110 420,-75 139,-391 335,-513z"/>
  <path class="fil1" d="M9948 4623c0,-7 -22,-1 -33,-1 -129,0 -289,24 -432,54 -94,19 -182,40 -252,59 -58,15 -104,28 -130,35 -289,84 -420,145 -528,198 -51,40 -118,56 -194,82l0 0 -3 1c-5,2 -10,4 -16,6 -104,36 -239,70 -364,94 5,5 11,12 18,18l-2 0c-5,-6 -11,-12 -16,-18 -172,35 -380,68 -626,68 -141,0 -295,-11 -461,-39 -526,-89 -897,-301 -1184,-301 -46,0 -89,5 -130,17 -132,38 -162,119 -287,119 -12,0 -24,0 -37,-2 -186,-20 -263,-164 -465,-202 -26,-5 -49,-7 -70,-7 -400,0 -1374,597 -1955,35 -152,-147 -100,-232 -619,-182 -511,84 -577,168 -688,279 -46,46 3,109 -32,140 -138,126 -335,127 -874,131 -7,0 -15,0 -22,0 -59,0 -120,-1 -185,-5 -20,-1 -41,-3 -62,-4 -81,-6 -168,-8 -292,-25l-1 251c621,5 1067,-63 1483,-240 255,-108 -62,-183 52,-242 72,-38 145,-70 254,-99 29,-8 60,-16 95,-23 700,-154 603,177 906,302 172,71 618,44 992,-19 331,-55 633,-150 770,-134 277,31 -31,187 253,220 52,6 107,9 162,9 148,0 299,-23 413,-77 144,-67 119,-130 230,-139 8,-1 16,-1 24,-1 164,0 340,132 583,239 331,146 672,194 910,210 92,6 168,7 223,7 20,0 38,-1 52,-1 324,-3 551,-71 803,-176 66,-27 133,-57 204,-89 11,-4 21,-9 32,-14 348,-155 338,-222 646,-306 107,-29 227,-53 347,-69 93,-12 186,-19 271,-19 2,0 3,0 5,0 63,0 231,-16 232,17l0 -157z"/>
  <path class="fil1" d="M2 870c1,7 22,1 34,1 128,0 288,-25 431,-54 94,-19 182,-41 252,-59 58,-15 104,-28 130,-35 290,-84 421,-145 529,-198 50,-40 118,-56 194,-82l0 0 2 -1c6,-2 11,-4 16,-6 104,-36 239,-70 365,-94 -6,-6 -12,-12 -18,-18l1 0c6,6 11,12 17,18 171,-35 380,-68 625,-68 142,0 296,11 462,39 526,89 897,301 1184,301 45,0 88,-5 130,-17 131,-38 162,-119 287,-119 11,0 23,0 36,2 187,20 263,164 465,202 27,5 50,7 71,7 400,0 1374,-597 1955,-35 152,147 100,232 618,181 512,-83 578,-168 688,-278 46,-46 -3,-109 32,-141 139,-125 335,-127 874,-130 8,0 15,0 23,0 58,0 120,1 184,5 20,1 41,2 62,4 82,6 169,7 292,25l1 -251c-621,-5 -1066,63 -1483,240 -255,108 63,183 -51,242 -73,38 -145,70 -254,99 -29,8 -61,16 -95,23 -700,154 -604,-177 -907,-302 -171,-71 -618,-44 -991,18 -331,56 -634,151 -771,135 -277,-32 31,-188 -252,-220 -53,-6 -107,-9 -163,-9 -147,0 -298,23 -413,77 -143,67 -118,130 -229,139 -8,1 -17,1 -25,1 -164,0 -339,-132 -583,-239 -330,-146 -672,-194 -910,-210 -91,-6 -168,-7 -222,-7 -21,0 -38,0 -52,1 -324,2 -552,71 -803,176 -66,27 -134,57 -205,89 -10,4 -21,9 -31,14 -349,155 -338,222 -646,306 -107,29 -228,53 -347,69 -94,12 -186,19 -271,19 -2,0 -4,0 -6,0 -63,0 -231,16 -232,-17l0 157z"/>
 </g>
</svg>
